<svg width="33" height="20" viewBox="0 0 33 20" fill="none" xmlns="http://www.w3.org/2000/svg">
<path fill-rule="evenodd" clip-rule="evenodd" d="M6.23673 0.594482H9.75903L10.7608 0.626797L11.3424 0.723741L11.8272 0.885314L12.3765 1.17615L12.7966 1.49929L13.2167 1.91938L13.5398 2.37179L13.863 2.98577L14.1215 3.63206V3.69669H16.4482L17.256 3.729L18.0316 3.85826L18.6456 4.01983L19.2918 4.27835L19.9058 4.6015L20.3905 4.92464L20.8106 5.24779L21.3277 5.66788L21.6831 5.95871L22.2325 6.41112L22.6526 6.76658L23.105 7.15435L23.5574 7.50981L24.0098 7.89759L24.4299 8.22074L24.9792 8.60851L25.4639 8.86703L26.1425 9.09323L27.2412 9.31943L28.9862 9.64258L29.6972 9.83647L30.2142 10.0627L30.602 10.2889L30.9897 10.6443L31.3129 10.9998L31.636 11.5168L31.8622 12.0339L31.9915 12.4863L32.0238 12.6802V13.3588L31.8622 14.0374L31.636 14.5544L31.3452 15.0391L30.9897 15.4269L30.7635 15.6531L30.2465 16.0086L29.7295 16.2671L29.2771 16.3963L28.9539 16.4287L28.8893 16.461L28.857 16.8811L28.7277 17.3658L28.4369 17.9798L28.1784 18.3352L27.8875 18.6584L27.5644 18.9492L27.2089 19.1754L26.7242 19.4016L26.2395 19.5309L25.981 19.5632H25.4316L24.8823 19.4662L24.3976 19.3047L23.9128 19.0461L23.5574 18.7553L23.2989 18.4968L22.9757 18.0444L22.7172 17.5274L22.5233 16.9457L22.4264 16.4933L21.2307 16.461H9.98523L9.82366 17.1073L9.59745 17.7212L9.30662 18.206L9.04811 18.5291L8.69264 18.8846L8.20792 19.2077L7.75552 19.4016L7.2708 19.5309L6.97997 19.5632H6.52756L5.91359 19.4662L5.29961 19.24L4.81489 18.9492L4.42711 18.5937L4.20091 18.3352L3.91008 17.8828L3.65156 17.3335L3.5223 16.8487V16.3963L3.13453 16.3317L2.52055 16.0732L1.9712 15.75L1.64805 15.4915L1.38954 15.2653L1.03408 14.8129L0.71093 14.2959L0.517042 13.8112L0.420098 13.4234L0.355469 12.7448V7.80065L0.387783 4.14909L0.420098 3.59974L0.549357 3.11502L0.807874 2.59799L1.09871 2.14558L1.45417 1.72549L1.68037 1.49929L2.06814 1.20846L2.52055 0.949943L2.97295 0.78837L3.42536 0.691426L4.23322 0.626797L6.23673 0.594482ZM5.65507 1.69318L3.68388 1.72549L3.16684 1.82244L2.64981 2.08096L2.22972 2.43642L1.87426 2.85651L1.61574 3.30891L1.5188 3.66437L1.48648 4.21372V10.2242L1.5188 12.7771L1.58342 13.4234L1.71268 13.8435L1.93889 14.2313L2.32666 14.6513L2.77907 14.9745L3.2961 15.2007L3.71619 15.2653L4.10397 14.6513L4.36248 14.3282L4.71794 13.9727L5.13803 13.6819L5.62275 13.4557L6.07516 13.3264L6.30136 13.2941H7.10923L7.62626 13.3911L8.17561 13.6173L8.62802 13.9081L8.95116 14.1989L9.17736 14.4251L9.50051 14.9099L9.72671 15.2653L9.79134 15.33L13.346 15.3623H18.4193L22.6526 15.33L22.9757 14.7483L23.2989 14.2959L23.622 13.9727L24.0421 13.6819L24.5268 13.4557L24.9792 13.3264L25.2054 13.2941H26.1425L26.595 13.3911L27.015 13.5527L27.3705 13.7465L27.7906 14.0697L28.1137 14.4251L28.6954 15.2653L28.7923 15.3623L29.1155 15.2653L29.5356 15.1038L29.9234 14.8776L30.3111 14.5221L30.6343 14.0697L30.7959 13.6819L30.8605 13.3264L30.8282 13.2941L29.1478 13.2618L28.9862 13.1649L28.8893 13.0033L28.857 12.8417V12.6155L28.9539 12.3247L29.0185 12.2601L29.1801 12.2278L30.4727 12.1954L30.6989 12.1308L30.505 11.743L30.2142 11.3876L29.8264 11.0967L29.4063 10.9029L28.9539 10.7736L27.2736 10.4828L25.8517 10.2242L25.3347 10.1596L13.9599 10.1273L13.6691 10.0304L13.3783 9.80415L13.1844 9.57795L13.0874 9.35175L13.0551 9.19018V7.31593L13.1521 6.86352L13.346 6.50806L13.6368 6.21723L13.9599 6.02334L14.2508 5.9264L14.5416 5.89408L18.9041 5.86177L19.7119 5.82945V5.73251L19.2272 5.44168L18.6132 5.15085L18.0316 4.98927L17.5792 4.92464L17.1268 4.89233H13.7337L13.3783 4.8277L13.1844 4.69844L13.1197 4.6015L12.9259 3.59974L12.7643 3.11502L12.5058 2.69493L12.2149 2.37179L11.9241 2.11327L11.4394 1.85475L11.0839 1.75781L10.8577 1.72549L10.1791 1.69318H5.65507ZM8.73081 16.4157C8.73081 17.5008 7.85117 18.3804 6.76608 18.3804C5.68099 18.3804 4.80135 17.5008 4.80135 16.4157C4.80135 15.3306 5.68099 14.4509 6.76608 14.4509C7.85117 14.4509 8.73081 15.3306 8.73081 16.4157ZM25.6906 18.3804C26.7757 18.3804 27.6553 17.5008 27.6553 16.4157C27.6553 15.3306 26.7757 14.4509 25.6906 14.4509C24.6055 14.4509 23.7258 15.3306 23.7258 16.4157C23.7258 17.5008 24.6055 18.3804 25.6906 18.3804ZM13.6049 11.0968H14.5743L14.8974 11.1938L15.1236 11.4523L15.156 11.5492V11.7754L15.0267 12.0016L14.8328 12.1632L14.6066 12.2602L14.4127 12.2925H13.7664L13.4756 12.2278L13.2171 12.0663L13.0878 11.9047L13.0555 11.8401V11.4523L13.1848 11.2584L13.314 11.1615L13.6049 11.0968ZM15.6676 6.87613C15.0171 6.87613 14.4898 7.40345 14.4898 8.05393C14.4898 8.7044 15.0171 9.23172 15.6676 9.23172H20.7714H21.9492H22.5883C23.114 9.23172 23.4012 8.61859 23.0647 8.21474L22.2005 7.17773C22.0412 6.98662 21.8053 6.87613 21.5566 6.87613H15.6676Z" fill="black"/>
</svg>
