<svg width="36" height="18" viewBox="0 0 36 18" fill="none" xmlns="http://www.w3.org/2000/svg">
<path fill-rule="evenodd" clip-rule="evenodd" d="M14.1338 0.563171H18.0626L19.2239 0.58788L20.0393 0.637298L20.6076 0.736134L21.1265 0.884389L21.6454 1.10677L22.2631 1.42799L22.8314 1.7492L23.3009 2.04571L24.4869 2.78698L24.9811 3.1082L25.5247 3.45413L26.1424 3.84947L26.513 4.09656L26.9825 4.39307L27.5261 4.68958L27.8967 4.88725L28.3662 5.08492L28.9345 5.25788L29.8982 5.48026L31.0101 5.67794L32.0973 5.8509L32.7397 5.99915L33.2586 6.17212L33.6539 6.36979L33.901 6.54275L34.2223 6.81455L34.5188 7.13577L34.7411 7.45699L34.8894 7.75349L34.9388 7.95117L34.9882 8.61831L35.0129 9.55725V11.0398L34.9882 11.5093L34.8894 11.9046L34.6917 12.3L34.5188 12.5223L34.3458 12.72L34.0246 12.9671L33.7034 13.1648L33.2833 13.3624L32.9621 13.4613L32.542 13.5354L32.1961 13.5601H31.8008L31.7514 13.8566L31.5784 14.4002L31.4301 14.7709L31.183 15.265L30.9112 15.6604L30.6394 15.9816L30.3924 16.2287L30.0464 16.4758L29.6511 16.6982L29.2804 16.8464L28.7616 16.97L28.5639 16.9947H27.7732L27.1308 16.8711L26.5377 16.6734L26.1177 16.4511L25.8212 16.2534L25.5494 16.031L25.3023 15.7592L24.9811 15.2403L24.7834 14.845L24.6352 14.4002L24.4869 13.6837L24.4622 13.4119L23.1279 13.4366L11.0699 13.4613L10.7734 13.486L10.6746 14.0543L10.5263 14.5732L10.3039 15.0921L10.1063 15.438L9.85916 15.7592L9.58736 16.0557L9.34027 16.2781L8.94493 16.5499L8.54959 16.7476L8.10482 16.8958L7.58593 16.9947L7.33884 17.0194H6.81995L6.17752 16.8958L5.78218 16.7723L5.36212 16.5746L5.06562 16.3769L4.84323 16.204L4.52202 15.9322L4.32434 15.7098L4.07725 15.3392L3.83016 14.8944L3.6572 14.4743L3.50895 13.9555L3.3854 13.4366L3.16302 13.3624L2.69355 13.2389L2.07582 12.9424L1.68048 12.72L1.4581 12.547L1.21101 12.3247L0.963919 12.0529L0.716828 11.7069L0.395611 11.0398L0.148521 10.595L0.024976 10.3974L0.000267029 10.3232V9.45842L0.024976 8.79127L0.0743941 8.29709L0.148521 8.00058L0.346193 7.60524L0.543865 7.2346L0.790955 6.86397L1.11217 6.46863L1.38397 6.19683L1.7299 5.92503L2.10053 5.67794L2.47117 5.50497L2.91593 5.35672L3.41011 5.25788L4.76911 5.08492L5.33741 4.96138L5.93043 4.7637L6.54816 4.4672L7.06705 4.14598L7.56123 3.80005L7.88244 3.55296L8.3025 3.23174L9.71091 2.19397L10.2051 1.84804L10.7734 1.4774L11.2676 1.1809L11.6629 0.983225L12.0088 0.834971L12.503 0.686716L12.9478 0.612589L13.3184 0.58788L14.1338 0.563171ZM18.2843 6.36973H26.29L27.1548 6.41915L28.3655 6.5427L29.2551 6.69095L30.5152 6.93804L31.6766 7.23455L32.8132 7.58047L33.0603 7.67931L33.2332 7.82756L33.4062 8.09936L33.5544 8.44529L33.5791 8.61825L33.5297 8.64296L31.6518 8.7418V9.82899L31.8495 9.87841L32.2449 9.90312L33.8262 9.92783V10.6444L33.7768 10.9903L33.678 11.2621L33.4309 11.5833L33.1838 11.8057L32.8379 12.0034L32.4425 12.1269L32.2943 12.1516H31.8989L31.6271 12.0528L31.4048 11.8798L31.1577 11.5833L30.8364 11.1386L30.6141 10.8668L30.367 10.595L30.1199 10.3973L29.774 10.1996L29.3045 10.0267L28.9091 9.92783L28.3161 9.8537H27.8961L27.3525 9.92783L26.883 10.0514L26.3888 10.249L26.117 10.3973L25.8205 10.6197L25.5734 10.8421L25.351 11.0644L25.0298 11.4845L24.758 11.9046L24.6098 12.2011L23.9921 12.2258L14.6273 12.2505H12.2059L10.748 12.2258L10.5998 12.1764L10.5256 12.0775L10.4021 11.8551L10.0562 11.3857L9.78437 11.0397L9.48787 10.7185L9.24078 10.4961L8.89485 10.2738L8.52422 10.1008L8.05474 9.95254L7.60998 9.87841L7.26406 9.8537H6.94284L6.44866 9.90312L5.88035 10.0267L5.50972 10.1749L5.08966 10.3973L4.74374 10.6691L4.52136 10.8915L4.24956 11.2374L3.90363 11.7563L3.68125 12.0775L3.58241 12.1269L3.5577 12.0281L3.36003 12.0034L2.96469 11.781L2.56934 11.5092L2.32225 11.2868L2.07516 11.0397L1.82807 10.6691L1.55628 10.1502L1.43273 9.77958L1.3586 9.31011L1.38331 8.96418L1.53157 8.51942L1.85278 7.90169L2.07516 7.58047L2.34696 7.28397L2.7176 6.98746L3.08823 6.76508L3.38474 6.61682L3.65654 6.5427L4.1013 6.49328L4.99083 6.44386L5.7321 6.41915L10.4021 6.39444L18.2843 6.36973ZM19.099 1.77394H18.2342V5.15908L18.2836 5.18379L20.5568 5.23321H22.0641L25.2515 5.15908L25.3504 5.10966V4.98612L25.301 4.9367L24.362 4.3931L23.7196 3.99776L22.9783 3.50357L22.5088 3.20707L21.8911 2.83643L21.5699 2.63876L21.1746 2.41638L20.7792 2.21871L20.1615 1.97162L19.5932 1.82336L19.099 1.77394ZM16.4795 1.74937H17.0478L17.0972 4.76387V5.18392L16.4548 5.20863H13.5144L12.3531 5.18392L12.3036 5.15921L12.3531 5.03567L12.7237 4.49207L13.0202 4.09673L13.5144 3.35546L13.7368 3.05895L14.0333 2.71302L14.3792 2.3671L14.6263 2.19413L14.9722 1.99646L15.3923 1.87292L15.8864 1.79879L16.4795 1.74937ZM12.402 2.1941H12.3031L12.1302 2.26822L11.7348 2.4906L11.3148 2.78711L10.8206 3.13304L10.3511 3.47896L9.93105 3.77547L9.53571 4.04727L8.91798 4.46732L8.49793 4.76383L8.17671 5.03563L8.15201 5.13447L8.20142 5.15918L8.44851 5.18389H10.4747L10.8206 5.15918L10.8453 5.13447L11.0924 4.665L11.5124 3.97314L11.7595 3.60251L12.0313 3.15775L12.2537 2.68828L12.3772 2.39177L12.402 2.1941ZM9.12842 13.4515C9.12842 14.5432 8.24341 15.4282 7.15169 15.4282C6.05998 15.4282 5.17497 14.5432 5.17497 13.4515C5.17497 12.3598 6.05998 11.4748 7.15169 11.4748C8.24341 11.4748 9.12842 12.3598 9.12842 13.4515ZM28.185 15.4282C29.2767 15.4282 30.1617 14.5432 30.1617 13.4515C30.1617 12.3598 29.2767 11.4748 28.185 11.4748C27.0933 11.4748 26.2083 12.3598 26.2083 13.4515C26.2083 14.5432 27.0933 15.4282 28.185 15.4282Z" fill="black"/>
</svg>
