<svg width="30" height="16" viewBox="0 0 30 16" fill="none" xmlns="http://www.w3.org/2000/svg">
<path fill-rule="evenodd" clip-rule="evenodd" d="M5.3506 0.563171H15.7864L16.4023 0.631603L17.1208 0.802682L17.6683 1.00798L18.3868 1.38435L19.0711 1.86337L19.6186 2.30818L19.995 2.61612L20.474 3.02671L20.8504 3.33465L21.3294 3.74524L21.7057 4.05318L22.2874 4.5322L22.8691 4.97701L23.3139 5.25073L23.7587 5.45603L24.3061 5.62711L25.1615 5.79819L26.6328 6.0377L27.5224 6.24299L27.933 6.41407L28.3094 6.61937L28.7542 6.99574L29.0964 7.37211L29.3701 7.81692L29.5754 8.29594L29.7122 8.74074V9.69879L29.5754 10.2462L29.3359 10.7937L29.0964 11.1701L28.7884 11.5122L28.4805 11.8202L27.933 12.1623L27.454 12.3676L27.0776 12.4703L26.7697 12.5387V12.8466L26.6328 13.3599L26.3933 13.9073L26.0512 14.3863L25.6406 14.7969L25.1958 15.0707L24.7852 15.276L24.443 15.3786L24.2035 15.4128H23.3823L22.8691 15.3102L22.4585 15.1391L22.0821 14.9338L21.6373 14.5574L21.2609 14.0784L20.953 13.4967L20.7819 12.8466L20.7477 12.5045H9.21699L9.04591 12.5387L8.90904 13.0861L8.66953 13.7362L8.36159 14.2495L7.98522 14.6601L7.64306 14.9338L7.16404 15.2075L6.61659 15.3786L6.41129 15.4128H5.59011L5.07688 15.3102L4.66629 15.1391L4.28991 14.9338L3.94775 14.6601L3.70824 14.4206L3.36609 13.9415L3.12658 13.4283L2.98971 12.9493L2.9555 12.4703L2.54491 12.3676L2.03167 12.1623L1.55265 11.8886L1.10784 11.5122L0.868334 11.2727L0.49196 10.7595L0.25245 10.2805L0.081371 9.733L0.0129395 9.04869V6.65358L0.0471552 6.00348L0.149803 5.45603L0.457745 4.46377L0.731471 3.74524L1.10784 3.02671L1.48422 2.51347L1.86059 2.10288L2.27118 1.72651L2.78442 1.35013L3.57138 0.939545L4.18727 0.73425L4.9058 0.597387L5.3506 0.563171ZM9.7296 1.58958H11.8168L16.0253 1.6238L16.607 1.69223L17.1886 1.89752L17.7361 2.17125L18.1467 2.41076L18.2151 2.54762L18.0098 2.58184L11.3035 2.61606H4.69988L4.18664 2.7187L3.84449 2.85557L3.46811 3.09508L3.16017 3.3688L2.85223 3.81361L2.5785 4.39528L2.40742 4.90851L2.33899 5.28489V5.5244L2.44164 5.83234L2.64693 6.14028L2.88644 6.34558L3.26282 6.51666L3.91292 6.55087H20.9866L23.6554 6.58509L24.8872 6.79038L26.3585 7.06411L27.0086 7.16676L27.5218 7.33783L27.9666 7.64578L28.2061 7.88529L28.4456 8.29588L28.4799 8.43274L28.4456 8.46696L27.077 8.50117L26.8717 8.63803L26.7691 8.80911V9.11705L26.9401 9.39078L27.0428 9.45921L27.2481 9.49343H28.5483L28.6167 9.52765V9.76716L28.4799 10.1435L28.2746 10.5199L27.9666 10.8621L27.6929 11.1016L27.2139 11.3411L26.8033 11.4437H26.6322L26.3927 11.1016L26.0847 10.6226L25.7768 10.2804L25.4689 10.0067L24.9898 9.73294L24.4766 9.56186L24.0318 9.49343H23.4159L22.9027 9.59608L22.3894 9.80137L21.9446 10.1093L21.6709 10.3488L21.363 10.7252L21.055 11.2042L20.9182 11.4437L20.8497 11.4779L17.086 11.5122H13.3907L9.04528 11.4779L8.80577 11.4095L8.53205 10.9647L8.29254 10.6226L7.91616 10.212L7.50557 9.90402L6.92391 9.63029L6.4791 9.52765L6.20537 9.49343H5.65792L5.11047 9.59608L4.69988 9.76716L4.32351 9.97245L3.8787 10.3488L3.50233 10.8278L3.19439 11.3411L3.16017 11.3753H2.92066L2.40742 11.2042L2.03105 10.9647L1.68889 10.6568L1.41516 10.3146L1.17565 9.83559L1.10722 9.49343L1.07301 6.8246L1.10722 5.9692L1.2783 5.25067L1.65467 4.15577L1.99683 3.50567L2.30477 3.09508L2.7838 2.61606L3.39968 2.17125L3.94713 1.89752L4.42615 1.72645L4.83674 1.65801L5.28155 1.6238L9.7296 1.58958ZM19.5159 3.60832H14.8625V5.49019H21.6715L21.7057 5.38754L21.5346 5.25068L21.124 4.90852L20.6108 4.46371L20.2686 4.18999L19.8238 3.81361L19.5159 3.60832ZM9.08011 3.57405H13.8019L13.8361 3.60827V5.49014L13.8019 5.52435H9.01168L8.94325 5.49014L8.90904 3.74513L8.94325 3.60827L9.08011 3.57405ZM7.95026 3.60832H4.83662L4.63133 3.64253L4.28917 3.7794L4.01544 3.98469L3.7075 4.32685L3.53642 4.66901L3.36534 5.18224L3.33113 5.49019H7.91604L7.95026 5.42175V3.60832ZM7.59497 12.4873C7.59497 13.3992 6.85578 14.1384 5.94395 14.1384C5.03211 14.1384 4.29292 13.3992 4.29292 12.4873C4.29292 11.5755 5.03211 10.8363 5.94395 10.8363C6.85578 10.8363 7.59497 11.5755 7.59497 12.4873ZM23.7999 14.1384C24.7118 14.1384 25.4509 13.3992 25.4509 12.4873C25.4509 11.5755 24.7118 10.8363 23.7999 10.8363C22.8881 10.8363 22.1489 11.5755 22.1489 12.4873C22.1489 13.3992 22.8881 14.1384 23.7999 14.1384Z" fill="black"/>
</svg>
