<svg width="37" height="18" viewBox="0 0 37 18" fill="none" xmlns="http://www.w3.org/2000/svg">
<path fill-rule="evenodd" clip-rule="evenodd" d="M14.8693 0.594482H20.2588L20.937 0.665868L21.6865 0.84433L22.4361 1.12987L23.3284 1.59387L24.2564 2.16495L25.6127 3.02158L26.3979 3.52127L27.2546 4.05666L28.0041 4.52066L28.7537 4.94897L29.4318 5.27021L30.1814 5.52005L31.1807 5.73421L33.4294 6.12683L34.1789 6.30529L34.75 6.51945L35.1426 6.7336L35.4995 7.01914L35.8565 7.37607L36.2134 7.87576L36.4989 8.48254L36.6417 9.05362L36.6774 9.51762V10.6955L36.606 11.3736L36.4632 11.909L36.142 12.5158L35.8565 12.8727L35.4995 13.2296L34.9998 13.5509L34.6072 13.7293L34.1075 13.8721L33.7149 13.9435L33.0724 13.9792L33.0011 14.5503L32.8226 15.1214L32.4657 15.7995L32.0731 16.2992L31.7518 16.6204L31.3592 16.906L30.7524 17.2272L30.1814 17.4057L29.646 17.5128H29.1106L28.3967 17.3343L27.8613 17.1201L27.3616 16.8346L27.0047 16.5491L26.6478 16.1921L26.2909 15.6924L25.9696 15.0143L25.7912 14.4789L25.6841 13.9792L24.2921 13.9435H11.4428L11.2286 14.7644L11.0145 15.3355L10.7289 15.8352L10.372 16.2992L10.0865 16.5847L9.58675 16.9417L9.01567 17.2272L8.48029 17.4057L7.9092 17.5128H7.48089L6.73135 17.3343L6.23166 17.1558L5.69627 16.8703L5.33934 16.5847L5.01811 16.2992L4.66118 15.8352L4.37564 15.3355L4.1258 14.693L4.05441 14.3361V13.8364L3.48333 13.6936L2.87656 13.4438L2.26978 13.0869L1.87716 12.7656L1.66301 12.5872L1.27039 12.0875L0.949159 11.5878L0.663618 10.981L0.520848 10.517L0.449463 10.1244V9.16069L0.592233 8.48254L0.913466 7.73299L1.27039 7.12622L1.59162 6.7336L1.94855 6.37668L2.37686 6.05544L2.80517 5.80559L3.55471 5.55575L4.19718 5.44867L5.48211 5.3059L6.16027 5.16313L6.73135 4.91328L7.40951 4.55636L8.30182 3.94958L8.97998 3.44989L9.72952 2.87881L10.4077 2.37911L11.0145 1.9508L11.5498 1.59387L12.1209 1.27264L12.6563 1.02279L13.2988 0.808638L13.9412 0.665868L14.8693 0.594482ZM4.73173 6.66224H28.2888L29.4667 6.69793L30.2519 6.8764L33.607 7.48317L34.1067 7.62594L34.535 7.8401L34.8919 8.16133L35.1418 8.55395L35.2489 8.91087L35.2132 8.94656L34.7849 8.98226L33.8212 9.01795L33.3572 9.05364L33.143 9.12503L33.0716 9.37488V9.80319L33.2144 10.0887L33.4642 10.2315L35.0347 10.2672L35.2846 10.3029L35.3202 10.3386V11.1595L35.2132 11.5878L34.9633 11.9804L34.6778 12.266L34.1067 12.5515L33.7498 12.6229H32.9288L32.7147 12.373L32.215 11.6235L31.8224 11.1952L31.4655 10.874L30.9658 10.5884L30.5731 10.41L30.0377 10.2672L29.6808 10.2315H29.0384L28.4316 10.3386L27.8248 10.5527L27.2894 10.874L26.8611 11.2666L26.6113 11.5164L26.2543 12.0875L25.9331 12.6586H11.2278L11.0493 12.4444L10.6924 11.8377L10.3355 11.3737L10.0142 11.0524L9.55023 10.7312L8.97915 10.4457L8.47945 10.3029L7.90837 10.2315H7.44437L6.94467 10.3029L6.3379 10.4813L5.73112 10.8026L5.3742 11.0881L5.05297 11.3737L4.69604 11.8377L4.26773 12.5515L4.16065 12.5872L3.55388 12.373L3.05418 12.1232L2.69726 11.8377L2.26895 11.4094L1.98341 10.9097L1.80494 10.4457L1.73356 10.053L1.69787 9.41057L1.76925 8.87518L1.91202 8.44687L2.16187 8.01856L2.62587 7.48317L3.01849 7.16194L3.51819 6.8764L3.98219 6.73363L4.73173 6.66224ZM19.2579 1.77239H18.7939L17.5446 1.80808L16.9379 1.87947L16.5096 1.98655L15.9385 2.27209L15.5459 2.59332L15.2246 2.95025L14.7963 3.52133L14.2252 4.41364L13.7612 5.19888V5.34165H26.789L26.8604 5.27026L26.5392 5.05611L25.861 4.6278L23.3982 3.05732L22.7201 2.62901L22.1133 2.30778L21.5422 2.05793L21.0068 1.91516L20.1145 1.80808L19.2579 1.77239ZM14.3684 1.87942L14.2971 2.05789L13.7617 2.91451L13.3334 3.59267L12.9407 4.23513L12.4767 4.98468L12.2269 5.3416H8.87179L8.62194 5.30591L8.80041 5.12745L9.40718 4.69914L10.1567 4.12805L10.7635 3.69974L11.4417 3.20005L12.2983 2.62897L12.9407 2.27204L13.4761 2.05789L14.2257 1.87942H14.3684ZM19.5423 7.73302H18.6857L18.293 7.8401L18.0432 8.05426L17.9361 8.26841V8.58965L18.0075 8.73242L18.293 8.98226L18.65 9.08934H19.4709L19.8635 9.01796L20.1134 8.87519L20.3275 8.58965L20.3632 8.3398L20.2561 8.08995L20.0063 7.87579L19.5423 7.73302ZM31.7413 13.9006C31.7413 15.0992 30.7697 16.0707 29.5711 16.0707C28.3726 16.0707 27.401 15.0992 27.401 13.9006C27.401 12.7021 28.3726 11.7305 29.5711 11.7305C30.7697 11.7305 31.7413 12.7021 31.7413 13.9006ZM7.81301 16.0707C9.01153 16.0707 9.98311 15.0992 9.98311 13.9006C9.98311 12.7021 9.01153 11.7305 7.81301 11.7305C6.61449 11.7305 5.6429 12.7021 5.6429 13.9006C5.6429 15.0992 6.61449 16.0707 7.81301 16.0707Z" fill="black"/>
</svg>
