<svg width="33" height="16" viewBox="0 0 33 16" fill="none" xmlns="http://www.w3.org/2000/svg">
<path fill-rule="evenodd" clip-rule="evenodd" d="M18.1999 0.594482H18.0891L18.0574 0.641981L18.0257 1.05363V1.65528L18.0891 1.73445L18.2949 1.81361L18.8491 1.97194L19.1815 2.0986L19.5457 2.27276L19.799 2.39943L20.1315 2.60525L20.3848 2.76358L20.749 2.98524L20.9865 3.14357L21.2873 3.33356L21.5565 3.50772L22.2056 3.91938L22.5064 4.10937L22.8389 4.3152L23.1556 4.53686L23.5831 4.82185L21.1765 4.80602L14.2259 4.79018H13.3551L13.3234 4.82185L13.2126 4.86935L11.7243 4.90101L3.52287 4.91685L3.19038 4.93268L2.90539 4.96434L2.50957 5.04351L2.01875 5.24934L1.68626 5.45516L1.48043 5.61349L1.25877 5.78765L1.08461 5.96181L0.894617 6.16764L0.577961 6.64263L0.372134 7.02261L0.197973 7.41843L0.134641 7.62426L0.0238113 8.03592V9.30254L0.118808 9.69836L0.197973 9.95169L0.340468 10.2683L0.498796 10.5375L0.657125 10.7908L0.79962 11.0125L0.926283 11.1708L1.10044 11.3608L1.48043 11.7091L1.68626 11.8675L1.95542 12.0258L2.22458 12.1525L2.4779 12.2633L2.92122 12.3899L3.19038 12.4533L3.20621 12.5324L3.28538 12.9124L3.38037 13.4191L3.47537 13.7041L3.6812 14.1316L3.82369 14.3532L4.01369 14.6224L4.17201 14.7965L4.36201 14.9707L4.67866 15.1924L4.99532 15.3665L5.35948 15.5248L5.62863 15.604L6.05612 15.6673H6.73693L7.14859 15.6198L7.54441 15.5407L7.8294 15.4457L8.16189 15.3032L8.35188 15.1924L8.51021 15.0815L8.73187 14.9074L8.76354 14.844L8.81103 14.8282L8.8427 14.7649H8.87437L8.90603 14.7174L9.09603 14.4957L9.28602 14.2266L9.41268 13.9732L9.57101 13.6091L9.68184 13.2924L9.77684 12.8966L9.84017 12.5324H19.704L22.2531 12.5483L22.6331 12.5641L22.6964 12.9758L22.7914 13.3557L22.9181 13.7041L23.0764 14.0366L23.2189 14.2899L23.4247 14.5749L23.5672 14.749L23.6781 14.8599L23.8997 15.0499L24.0897 15.1924L24.3747 15.3507L24.7072 15.4932L24.9764 15.5723L25.3722 15.6515L25.7522 15.6832H26.0055L26.2747 15.6673L26.5596 15.6357L26.9555 15.5565L27.2405 15.4615L27.5096 15.3349L27.7629 15.1924L27.9371 15.0657L28.1113 14.9232L28.2221 14.8124L28.5704 14.4324L28.7287 14.2107L28.8554 13.9891L28.9821 13.7041L29.0771 13.4507L29.2354 12.7699L29.2987 12.5008L29.9004 12.4849L30.1537 12.4691L30.3437 12.4374L30.6445 12.3583L30.9453 12.2474L31.1353 12.1366L31.4362 11.915L31.6736 11.6775L31.7845 11.5508L32.0061 11.2816L32.1328 11.0442L32.2753 10.7275L32.402 10.3475L32.4495 10.2683V8.44757L32.4178 8.33674L32.4495 8.32091V8.16258L32.4336 8.14675L32.3703 7.75092L32.3386 7.65593L32.1645 7.26011L32.0695 7.10178L31.8953 6.84845L31.6736 6.57929L31.452 6.3418L31.2937 6.19931L31.0403 5.99348L30.7395 5.83515L30.3595 5.70849L29.9004 5.59766L27.9688 5.24934L27.1296 5.09101L26.7496 4.99601L26.2113 4.85352L25.8155 4.71102L25.5147 4.56852L25.2772 4.42603L24.9289 4.20437L24.628 4.01437L24.2639 3.79272L24.0581 3.66605L23.7097 3.44439L23.3297 3.2069L23.0448 3.01691L22.3164 2.57359L22.0948 2.43109L21.7781 2.2411L21.6198 2.13027L21.2398 1.89277L20.8915 1.68695L20.6223 1.51279L20.369 1.35446L19.989 1.1328L19.609 0.97447L19.134 0.816142L18.6432 0.705312L18.1999 0.594482ZM3.72869 6.02515L4.36201 6.00931H25.0239L25.6572 6.04098L25.8947 6.07264L26.8605 6.23097L27.9688 6.45263L28.5229 6.54763L29.6312 6.76929L30.0112 6.86429L30.3595 6.99095L30.5495 7.10178L30.7553 7.26011L30.882 7.41843L30.9928 7.62426L31.167 8.06758L31.1512 8.11508L30.6128 8.08341H29.7895L29.647 8.11508L29.4571 8.24174L29.2671 8.43174L29.1879 8.59006V8.73256L29.2354 8.87506L29.3304 9.08088L29.4412 9.17588L29.5995 9.22338L29.9795 9.27088L30.3912 9.28671L31.1512 9.30254L31.262 9.31837L31.2778 9.33421V9.88836L31.262 10.0467L31.2145 10.2525L31.1512 10.4108L30.9928 10.6642L30.8662 10.8225L30.7553 10.9333L30.597 11.0758L30.407 11.1866L30.217 11.2658L29.9479 11.3133L29.6154 11.3291H29.1721L29.0771 11.2816L28.9979 11.1866L28.7762 10.8225L28.6021 10.5375L28.3804 10.2367L28.0638 9.92002L27.8421 9.74586L27.6521 9.6192L27.3513 9.46087L27.0346 9.35004L26.6705 9.25504L26.1797 9.19171H25.673L25.4038 9.22338L25.0397 9.28671L24.7072 9.38171L24.4064 9.50837L24.1847 9.63503L23.9472 9.79336L23.7731 9.95169L23.6464 10.0625L23.5039 10.2208L23.3297 10.4425L23.1714 10.6958L23.0289 10.965L22.8548 11.2025L22.7439 11.2975L22.5381 11.3133H9.72934L9.68184 11.2975L9.63434 11.25L9.52351 11.1075L9.39685 10.9017L9.20685 10.585L9.04853 10.3633L8.8902 10.1892L8.85853 10.1258H8.82687L8.68437 9.98335L8.49438 9.80919L8.20939 9.6192L7.94023 9.4767L7.67107 9.36587L7.33858 9.27088L6.94276 9.22338H6.18278L5.96112 9.23921L5.69197 9.27088L5.29614 9.36587L4.99532 9.49254L4.66283 9.68253L4.42534 9.85669L4.18785 10.0942L4.04535 10.2683L3.90286 10.4742L3.76036 10.7117L3.5387 11.1233L3.41204 11.2975L3.33287 11.3133L3.06372 11.2025L2.63623 11.0283L2.3829 10.9017L2.16124 10.7592L1.97125 10.6008L1.82875 10.4425L1.68626 10.2525L1.5121 9.96752L1.35377 9.63503L1.25877 9.35004L1.17961 8.98589L1.14794 8.68506L1.16378 8.4159L1.22711 8.06758L1.30627 7.79842L1.4646 7.46593L1.60709 7.22844L1.79709 6.95928L2.06625 6.69012L2.28791 6.51596L2.58873 6.31014L2.76289 6.21514L3.01622 6.12014L3.28538 6.05681L3.72869 6.02515ZM32.4178 8.30507L32.402 8.22591L32.4336 8.25758L32.4178 8.30507ZM6.00862 10.395L6.32528 10.3317H6.6736L6.8636 10.3633L7.14859 10.4425L7.37025 10.5375L7.62357 10.68L7.79773 10.8067L7.9244 10.9175L8.13022 11.1392L8.30438 11.3608L8.46271 11.6616L8.55771 11.9308L8.60521 12.1683L8.62104 12.5799L8.60521 12.8333L8.57354 12.9916L8.46271 13.2924L8.30438 13.5774L8.16189 13.7674L8.01939 13.9416L7.94023 14.0049L7.7819 14.1474L7.51274 14.3216L7.18025 14.464L6.84776 14.5432L6.54694 14.5749L6.29361 14.559L6.10362 14.5274L5.89779 14.464L5.58114 14.3374L5.35948 14.2107L5.20115 14.0682L5.07449 13.9574L4.97949 13.8466L4.80533 13.6249L4.647 13.3874L4.52034 13.1341L4.45701 12.9283L4.42534 12.6116V12.3266L4.45701 11.9941L4.5045 11.8358L4.63117 11.5666L4.82116 11.25L4.96366 11.06L5.13782 10.9017L5.26448 10.7908L5.48614 10.6325L5.78696 10.4742L6.00862 10.395ZM25.5622 10.3633L25.8472 10.3317H26.0372L26.1955 10.3475L26.338 10.3792L26.6705 10.49L27.003 10.6642L27.2088 10.8067L27.3829 10.965L27.5729 11.1866L27.6996 11.3608L27.8421 11.6141L27.9529 11.8833L28.0163 12.2V12.6116L28.0004 12.7858L27.9688 12.9599L27.8738 13.2449L27.7471 13.4982L27.5254 13.8149L27.4146 13.9416L27.2563 14.0841L27.0346 14.2424L26.7655 14.3849L26.4646 14.4957L26.1638 14.559H25.7363L25.6255 14.5432L25.293 14.464L24.9922 14.3532L24.7547 14.2266L24.5647 14.0841L24.3747 13.8941L24.2164 13.6882L24.1056 13.5141L23.9789 13.2608L23.8839 13.0074L23.8206 12.6908V12.2949L23.8364 12.1525L23.8839 11.8991L23.9631 11.6616L24.1214 11.3766L24.3114 11.1233L24.4855 10.9492L24.7072 10.7592L24.9447 10.6008L25.2455 10.4583L25.5622 10.3633ZM26.0687 11.3292H25.7679L25.7045 11.345L25.4196 11.44L25.1979 11.5667L25.0237 11.7567L24.9129 11.9467L24.8496 12.105L24.8179 12.3583V12.5483L24.8337 12.6908L24.8812 12.9125L25.0079 13.1658L25.1979 13.3558L25.3721 13.4666L25.562 13.5458L25.8312 13.5933H25.9737L26.2112 13.5616L26.4329 13.4824L26.607 13.3716L26.7653 13.2291L26.892 13.0708L26.987 12.8808L27.0503 12.675V12.2316L26.987 12.01L26.8762 11.82L26.7812 11.7092L26.5912 11.535L26.3379 11.4083L26.0687 11.3292ZM6.37259 11.3292H6.62591L6.89507 11.3925L7.1484 11.5192L7.30673 11.6458L7.41756 11.7567L7.52839 11.9308L7.60755 12.1208L7.63922 12.3266V12.6433L7.60755 12.8333L7.48089 13.1025L7.33839 13.2766L7.13257 13.4191L6.91091 13.5299L6.72091 13.5774L6.48342 13.5933L6.24593 13.5616L6.0401 13.4983L5.86594 13.3874L5.70761 13.2608L5.59678 13.1341L5.47012 12.8808L5.42262 12.7383L5.40679 12.5958V12.2791L5.45428 12.0575L5.56511 11.82L5.66011 11.6933L5.78677 11.5667L6.00843 11.44L6.18259 11.3767L6.37259 11.3292ZM19.7349 6.9909H19.5608L18.3892 7.00674L18.3258 7.02257L18.2308 7.0859L18.1517 7.16506L18.0883 7.26006L18.0408 7.45006V7.70338L18.12 7.92504L18.215 8.06754L18.3733 8.11503L18.8008 8.13087H19.7191L19.7983 8.11503L19.8458 8.08337L19.9091 7.98837L20.0991 7.79838L20.2099 7.67172L20.1783 7.48172L20.1149 7.35506L20.0516 7.27589L19.8299 7.11757L19.7349 6.9909Z" fill="black"/>
</svg>
