<svg width="30" height="17" viewBox="0 0 30 17" fill="none" xmlns="http://www.w3.org/2000/svg">
<path fill-rule="evenodd" clip-rule="evenodd" d="M16.0561 0.563171H5.43602L5.0675 0.596673L4.49797 0.697179L3.96194 0.898191L3.55991 1.1327L3.12439 1.46772L2.92338 1.70224L2.65536 2.03726L2.35384 2.53978L1.41579 4.41589L1.01377 5.32044L0.812756 5.99048L0.71225 6.62702V10.1782L0.745752 10.4462L0.913261 11.0158L1.18128 11.5518L1.5163 12.0208L1.85131 12.3558L2.28684 12.6909L2.65536 12.8919L3.3254 13.1599L3.62692 13.2939L3.82793 13.9304L4.02894 14.366L4.36396 14.8685L4.79948 15.304L5.26851 15.639L5.90505 15.9406L6.60859 16.1081H7.54664L8.04917 15.9741L8.45119 15.8065L8.98722 15.505L9.35574 15.2035L9.65726 14.8685L9.95878 14.4665L10.2268 13.8969L10.4613 13.2604H20.0429L20.2774 13.9304L20.4784 14.366L20.8134 14.8685L21.2154 15.2705L21.5504 15.5385L22.0195 15.8065L22.5555 16.0076L23.058 16.1081H23.9626L24.4986 15.9741L24.9676 15.773L25.4702 15.4715L25.8722 15.1365L26.2742 14.6675L26.5757 14.1314L26.7432 13.6959L26.8772 13.2604L27.3128 13.1264L27.7818 12.9254L28.3178 12.6239L28.7534 12.2553L29.1219 11.8198L29.3899 11.4178L29.6579 10.7813L29.7919 10.1782V8.93865L29.6914 8.43612L29.5239 8.0006L29.2224 7.46457L28.8874 7.02904L28.5523 6.72752L28.2173 6.45951L27.5808 6.15799L26.7432 5.95698L25.0346 5.65546L24.1636 5.45445L23.7281 5.28694L23.192 4.98542L22.5555 4.5164L22.12 4.14788L21.7515 3.84636L21.4164 3.54484L20.9474 3.17632L20.4784 2.7743L20.1099 2.47278L19.6743 2.10426L19.2388 1.76924L18.7698 1.43422L18.2338 1.1327L17.5972 0.864689L16.8267 0.663677L16.0561 0.563171ZM16.2247 1.6018H5.26961L4.96809 1.6353L4.59957 1.73581L4.13055 1.97032L3.79553 2.23834L3.52751 2.53985L3.226 3.00888L2.38845 4.68398L2.01993 5.48802L1.81891 6.09106L1.75191 6.66059V8.97222L1.78541 10.3458L1.88592 10.7478L2.15393 11.2169L2.48895 11.5854L2.85747 11.8534L3.46051 12.1214L3.62802 12.0879L3.86253 11.4849L4.13055 10.9153L4.46557 10.4463L4.70008 10.2118L5.16911 9.84327L5.67164 9.57526L6.27467 9.37424L6.7437 9.30724H7.21272L7.71525 9.37424L8.18428 9.50825L8.68681 9.74277L9.18934 10.0778L9.42385 10.3123L9.79237 10.7143L10.0939 11.2504L10.3284 11.8869L10.4624 12.1884H20.044L20.0775 12.1549L20.312 11.4849L20.5465 10.9823L20.8815 10.4798L21.1495 10.2118L21.518 9.91028L22.0541 9.60876L22.5901 9.40775L23.1596 9.30724H23.6622L24.1982 9.37424L24.6672 9.50825L25.2703 9.80977L25.7728 10.1783L26.0073 10.4463L26.3423 10.8818L26.6103 11.4179L26.7778 11.9204L26.9119 12.1214L27.2804 12.0209L27.7494 11.7864L28.0509 11.5184L28.3524 11.1833L28.6204 10.6808L28.721 10.1783V9.40775L28.6875 9.37424L28.3859 9.34074L27.2804 9.30724L27.0124 9.17323L26.9119 8.97222V8.6372L27.0124 8.43619L27.2134 8.36919L28.4529 8.30218L28.4864 8.26868L28.4194 8.10117L28.1849 7.76615L27.8499 7.46463L27.5149 7.23012L27.0794 7.06261L25.7728 6.8281L23.8632 6.45958L19.4744 6.42608H4.70008L4.33156 6.39257L4.03004 6.25857L3.79553 6.02405L3.66152 5.82304L3.52751 5.48802V5.1865L3.62802 4.88499L4.06354 3.98044L4.33156 3.4444L4.63308 3.04238L4.93459 2.80787L5.26961 2.64036L5.77214 2.53985L6.47568 2.50635H16.2247L18.4694 2.47285L18.4359 2.37234L17.8998 2.07083L17.3638 1.83631L16.7943 1.6688L16.2247 1.6018ZM14.3138 3.54493H19.1715L19.8416 3.57843L20.2771 3.91345L20.6121 4.21497L20.9806 4.51649L21.8517 5.25353L21.8852 5.35403L21.0476 5.38754H14.3473L14.3138 5.35403V3.54493ZM13.3103 3.54493H9.45755L9.42405 3.61194L9.45755 5.38754H13.2768L13.3103 5.35403V3.54493ZM6.00519 3.54493H8.45083V5.35403L8.41732 5.38754H4.5646L4.4976 5.35403L4.5646 5.15302L4.86612 4.58349L5.13414 4.04746L5.33515 3.77944L5.50266 3.64544L5.67017 3.57843L6.00519 3.54493ZM7.00186 14.9805C8.24211 14.9805 9.24754 13.9751 9.24754 12.7348C9.24754 11.4946 8.24211 10.4891 7.00186 10.4891C5.76161 10.4891 4.75618 11.4946 4.75618 12.7348C4.75618 13.9751 5.76161 14.9805 7.00186 14.9805ZM25.8656 12.7348C25.8656 13.9751 24.8602 14.9805 23.6199 14.9805C22.3797 14.9805 21.3742 13.9751 21.3742 12.7348C21.3742 11.4946 22.3797 10.4891 23.6199 10.4891C24.8602 10.4891 25.8656 11.4946 25.8656 12.7348ZM15.4912 7.25417H15.0211L14.7861 7.29079L14.5511 7.40067L14.3497 7.65704V8.13317L14.5175 8.35292L14.8533 8.46279H15.5919L15.7933 8.42617L16.0955 8.27967L16.2298 8.02329V7.76692L16.1962 7.65704L16.0619 7.47392L15.8605 7.32742L15.4912 7.25417Z" fill="black"/>
</svg>
