#W<svg width="32" height="17" viewBox="0 0 32 17" fill="none" xmlns="http://www.w3.org/2000/svg">
<path fill-rule="evenodd" clip-rule="evenodd" d="M15.9699 0.594482H16.3354L16.9447 0.624946L17.8586 0.746798L18.7115 0.929576L19.3817 1.14282L19.8691 1.3256L20.6307 1.69115L21.1791 1.99578L21.6665 2.33088L21.9711 2.57458L22.3976 2.94014L22.9459 3.48848L23.281 3.91496L23.677 4.49376L24.0426 5.07256L24.3472 5.55996L24.4081 5.62089L24.8955 5.68182L26.1141 5.80367L26.8756 5.98645L27.6372 6.29108L28.2465 6.62617L28.7339 6.96127L29.1604 7.32682L29.5869 7.75331L29.861 8.0884L30.1961 8.57581L30.5008 9.09368L30.7749 9.70294L30.9882 10.3731L31.11 11.0129L31.1405 11.2261V12.0181L31.0186 12.5055L30.8054 12.9016L30.5617 13.2062L30.3484 13.4194L30.0133 13.6327L29.6782 13.785L29.2518 13.8764L28.612 13.9068H27.0889L27.028 14.3943L26.8756 14.8817L26.6319 15.3691L26.4187 15.7042L26.0531 16.1002L25.7485 16.3439L25.2916 16.6181L24.8042 16.8008L24.3167 16.8922H23.8293L23.4029 16.8313L22.8545 16.6485L22.3976 16.4048L22.032 16.1307L21.7274 15.826L21.3923 15.3386L21.1486 14.8512L20.9963 14.3638L20.9353 13.9068L19.3208 13.8764H13.4719L10.913 13.9068L10.8216 14.4856L10.6388 15.0035L10.4256 15.3995L10.121 15.826L9.7554 16.1916L9.35938 16.4657L8.87197 16.7095L8.35409 16.8618L8.14085 16.8922H7.62298L7.10511 16.8008L6.58724 16.6181L6.19122 16.4048L5.85612 16.1611L5.49057 15.7956L5.18593 15.3386L4.97269 14.9121L4.82038 14.4247L4.72899 13.9068L2.93167 13.8764L2.44426 13.7545L2.0787 13.6022L1.74361 13.389L1.43898 13.1148L1.16481 12.8102L0.921103 12.4142L0.768788 12.0486L0.707862 11.7744L0.677399 11.3175L0.738325 10.7996L0.89064 10.2208L1.13434 9.61155L1.4999 8.84998L1.77407 8.36257L2.0787 7.90562L2.38333 7.47914L2.6575 7.14404L3.02306 6.71756L3.35815 6.352L4.18065 5.5295L4.42436 5.31626L4.75945 5.01163L5.09455 4.73746L5.58195 4.34144L6.19122 3.8845L6.70909 3.51894L7.34881 3.09246L7.98854 2.69643L8.53687 2.3918L9.02428 2.1481L9.60308 1.87393L10.4865 1.53884L11.4309 1.23421L12.4057 0.990502L13.5937 0.777261L14.7513 0.655409L15.1474 0.624946L15.9699 0.594482ZM14.9954 1.72157H17.0669L17.8589 1.81296L18.7119 1.99574L19.3516 2.20898L20.0827 2.54407L20.1132 2.605L20.0218 2.63546L15.6047 2.66592L14.5994 2.72685L13.5332 2.8487L12.5888 3.03148L11.6749 3.27519L10.7001 3.61028L9.99945 3.91491L9.26834 4.28047L8.50676 4.73741L8.08028 5.04205L7.77565 5.28575L7.53194 5.55992L7.47102 5.7427V6.10825L7.62333 6.41288L7.83657 6.62613L8.08028 6.74798L8.59815 6.77844H23.2509L25.627 6.8089L26.2363 6.90029L26.7846 7.05261L27.3329 7.29631L27.8508 7.60094L28.2164 7.87511L28.521 8.14928L28.8866 8.51484L29.2521 9.00224L29.6177 9.64197L29.6481 9.73336L29.1607 9.76382L27.8813 9.79429L27.729 9.88567L27.6071 10.0989V10.4949L27.7899 10.7386L28.0336 10.8605L29.9528 10.891L30.0137 11.1042V12.079L29.8918 12.3836L29.6786 12.6274L29.4958 12.7187L29.313 12.7492L26.9369 12.7797L26.7541 12.536L26.48 12.079L26.1144 11.6525L25.7793 11.3784L25.3833 11.1347L24.9264 10.9519L24.439 10.8605H23.6164L23.129 10.9519L22.5198 11.1956L22.1542 11.4393L21.7887 11.7744L21.545 12.079L21.2708 12.5664L21.1489 12.7797L10.7306 12.8101L10.5478 12.5055L10.2432 12.0181L9.90806 11.6525L9.63389 11.4088L9.20741 11.1651L8.72 10.9519L8.20213 10.8605H7.41009L6.92268 10.9519L6.46573 11.1347L6.1611 11.3174L5.73462 11.6525L5.42999 11.9876L5.12536 12.4446L4.94258 12.7797H3.1148L2.62739 12.6883L2.35322 12.536L2.04859 12.2618L1.83535 11.8353L1.80488 11.683V10.891L1.9572 10.3122L2.23137 9.67243L2.50553 9.15456L2.93202 8.51484L3.23665 8.11882L3.66313 7.60094L3.9373 7.29631L4.15054 7.05261L5.00351 6.19964L5.24721 5.9864L5.67369 5.62084L6.06972 5.28575L6.58759 4.88973L7.13592 4.49371L7.6538 4.12815L8.32398 3.70167L8.78093 3.4275L9.48158 3.06194L10.2736 2.72685L11.1266 2.42222L11.8272 2.20898L12.7411 1.99574L13.655 1.84342L14.508 1.75203L14.9954 1.72157ZM21.6975 3.76267H15.94L15.9095 3.79313L15.94 5.68184H22.2763L23.1598 5.65138V5.62091L22.8551 5.10304L22.581 4.70702L22.1849 4.18915L21.8803 3.88452L21.6975 3.76267ZM23.6768 11.8658H24.3775L24.743 11.9572L25.0781 12.14L25.3828 12.3837L25.6569 12.6883L25.9006 13.1148L25.992 13.4804V14.0592L25.8702 14.5466L25.6265 15.0035L25.2914 15.3691L25.0172 15.5823L24.6517 15.7346L24.408 15.7956L24.1338 15.826H23.8292L23.3417 15.7346L22.8543 15.4909L22.5497 15.2168L22.306 14.8817L22.1537 14.577L22.0623 14.242L22.0318 14.0287V13.5413L22.0928 13.2367L22.2146 12.9625L22.4279 12.6274L22.7934 12.2619L23.1285 12.0486L23.4027 11.9268L23.6768 11.8658ZM8.17006 11.8658H7.46941L7.19525 11.9268L6.76876 12.14L6.46413 12.3837L6.12904 12.7797L5.9158 13.1757L5.82441 13.5413V14.0287L5.88533 14.3333L6.03765 14.7294L6.28135 15.1254L6.4946 15.3386L6.79923 15.5823L7.16478 15.7346L7.65219 15.826L8.20053 15.7956L8.53562 15.7042L8.9621 15.4909L9.20581 15.2777L9.44951 14.9731L9.63229 14.638L9.75414 14.2115V13.3281L9.72368 13.2062L9.57137 12.8407L9.2972 12.4751L8.93164 12.1705L8.59655 11.9877L8.17006 11.8658ZM14.5078 3.76267H14.8125L14.8429 4.34146V5.65138L11.888 5.68184H9.847L9.11588 5.65138L9.2682 5.49906L9.72514 5.19443L10.5172 4.79841L11.5225 4.40239L12.284 4.15869L13.0456 3.97591L14.2337 3.79313L14.5078 3.76267ZM17.0354 7.66198H16.7308L16.3652 7.72291L16.0911 7.84476L15.9692 7.99708L15.9083 8.24078L15.9692 8.51495L16.2129 8.72819L16.4871 8.81958H17.34L17.6751 8.69773L17.8275 8.57587L17.9493 8.3931V8.11893L17.7665 7.87522L17.4619 7.72291L17.0354 7.66198Z" fill="black"/>
</svg>
