<svg width="33" height="18" viewBox="0 0 33 18" fill="none" xmlns="http://www.w3.org/2000/svg">
<path fill-rule="evenodd" clip-rule="evenodd" d="M13.478 0.563171H15.8559L17.5879 0.592528L18.2338 0.651242L18.9677 0.798026L19.5842 1.00352L20.2007 1.29709L20.7291 1.62002L21.2869 2.03101L21.8153 2.44201L22.1382 2.70622L22.5199 3.02915L22.8428 3.29336L23.2244 3.61628L23.5474 3.88049L23.8409 4.14471L24.4868 4.67313L24.9565 5.05477L25.4262 5.40705L25.9546 5.72997L26.395 5.93547L26.9528 6.11161L27.7748 6.28775L29.5949 6.61068L30.2994 6.78682L30.7691 6.96296L31.2682 7.22717L31.6205 7.49138L31.9434 7.78495L32.2663 8.19595L32.5306 8.60694L32.7654 9.07665L32.9122 9.54636L32.9709 9.89865L33.0003 10.2216V11.0436L32.9122 11.7188L32.7948 12.1591L32.5893 12.6288L32.3544 13.0105L32.1196 13.304L31.7966 13.6563L31.415 13.9792L30.9746 14.2728L30.4169 14.537L29.8884 14.6838L29.7123 14.7425L29.5949 15.2709L29.4187 15.7407L29.1545 16.2104L28.8316 16.6214L28.3619 17.0911L28.039 17.3259L27.5399 17.6195L27.0995 17.7956L26.6298 17.9131L26.1308 17.9718H25.7491L25.1913 17.9131L24.6336 17.7663L24.2226 17.5901L23.6942 17.2672L23.3712 17.003L23.0483 16.6801L22.696 16.2104L22.3731 15.5939L22.1382 14.948L22.0795 14.7425L20.7291 14.7132H11.2762L11.2175 14.9774L11.012 15.5645L10.6891 16.181L10.3368 16.6507L9.89644 17.0911L9.48544 17.3846L9.07445 17.6195L8.6341 17.7956L8.13503 17.9131L7.66532 17.9718H7.3424L6.7259 17.9131L6.28555 17.7956L5.8452 17.6195L5.40484 17.3846L5.05256 17.1204L4.75899 16.8562L4.5535 16.6507L4.23057 16.2104L3.96636 15.7407L3.7315 15.1242L3.61408 14.7132L2.99758 14.5664L2.32238 14.2435L1.82331 13.8912L1.47103 13.5682L1.20682 13.2747L0.913249 12.8637L0.649037 12.3646L0.443539 11.7481L0.355469 11.0729V8.90051L0.414182 8.16659L0.53161 7.7556L0.766464 7.31524L0.971962 7.02168L1.23617 6.72811L1.5591 6.4639L1.97009 6.22904L2.38109 6.11161L2.82144 6.0529L3.64343 6.02354L8.98638 5.99419L9.04509 3.64564L9.10381 3.08786L9.25059 2.64751L9.48544 2.1778L9.77901 1.7668L10.0432 1.47323L10.3661 1.17966L10.8359 0.886097L11.1881 0.739312L11.5991 0.651242L12.2156 0.592528L13.478 0.563171ZM12.3336 1.70796H17.3537L18.1463 1.73732L18.7041 1.82539L19.2325 2.00153L19.7022 2.23639L20.2306 2.52995L20.4361 2.7061V2.73545L13.2144 2.76481L12.3043 2.79417L12.0107 2.85288L11.7465 2.99966L11.4823 3.26388L11.2768 3.61616L11.2474 3.70423L11.2181 4.05651V6.08213L11.2768 6.3757L11.3942 6.61055L11.5117 6.75734L11.8346 6.99219L12.1282 7.10962L12.2749 7.13898L13.5079 7.16833H25.3094L26.2781 7.19769L26.9827 7.28576L29.1845 7.6674L29.9771 7.84354L30.3587 7.99033L30.6817 8.16647L30.9752 8.40132L31.2982 8.72425L31.5037 9.01781L31.5624 9.13524V9.22331L30.2413 9.25267L29.9771 9.31138L29.8303 9.42881L29.7423 9.63431V9.95723L29.8303 10.1334L30.0358 10.3095L30.1826 10.3682L30.3587 10.3976L31.8266 10.4269L31.8559 10.4563V11.0141L31.7972 11.4838L31.6504 11.9535L31.4449 12.3645L31.2101 12.6581L31.0046 12.8929L30.6523 13.1571L29.9771 13.5094L29.7716 13.5388L29.6835 13.392L29.4487 12.8048L29.0964 12.1296L28.8028 11.7186L28.5386 11.4251L28.3331 11.2196L27.8634 10.8967L27.3937 10.6618L26.8653 10.4857L26.4249 10.3976L26.1314 10.3682H25.691L25.1626 10.4269L24.6048 10.5737L24.0764 10.8086L23.7535 11.0141L23.3718 11.3076L23.0783 11.6012L22.7553 12.0416L22.4618 12.57L22.2563 13.0691L22.1095 13.5681L22.0508 13.6268H11.3355L11.2474 13.5094L10.9539 12.7168L10.6603 12.159L10.3667 11.748L10.0438 11.3957L9.75025 11.1315L9.22182 10.8086L8.78147 10.6031L8.28241 10.4563L7.93012 10.3976L7.31363 10.3682L6.72649 10.4269L6.16871 10.5737L5.66965 10.7792L5.25865 11.0434L4.87701 11.3664L4.55409 11.6893L4.23116 12.1296L3.93759 12.6874L3.67338 13.4213L3.58531 13.5975L3.1156 13.392L2.64589 13.1278L2.32297 12.8636L2.05876 12.5993L1.79454 12.1884L1.6184 11.748L1.53033 11.337L1.47162 10.6031L1.44226 9.48752V9.01781L1.47162 8.54811L1.55969 8.16647L1.70647 7.8729L1.97069 7.57933L2.2349 7.34448L2.52847 7.22705L2.93946 7.16833L9.36861 7.13898L9.69153 7.10962L9.95574 6.99219L10.1025 6.84541L10.1612 6.63991V3.90973L10.22 3.29323L10.3667 2.88224L10.5722 2.55931L10.8952 2.20703L11.1887 1.97217L11.5704 1.79603L11.8639 1.73732L12.3336 1.70796ZM7.95869 11.5427H6.9312L6.52021 11.6307L6.19728 11.7775L5.78628 12.0417L5.49272 12.3353L5.19915 12.7169L4.93494 13.216L4.81751 13.627L4.7588 14.0673L4.78815 14.5958L4.84687 14.86L5.02301 15.3297L5.25786 15.7407L5.49272 16.0342L5.87436 16.3865L6.22664 16.592L6.57892 16.7388L7.01927 16.8562H7.72384L7.92933 16.8269L8.28162 16.7388L8.72197 16.5627L9.16232 16.2691L9.45589 15.9755L9.74946 15.5645L9.9256 15.2123L10.0724 14.7719L10.1311 14.2141L10.1017 13.6563L9.98431 13.216L9.83753 12.8931L9.57332 12.4821L9.25039 12.1591L8.89811 11.8949L8.4284 11.6601L7.95869 11.5427ZM25.7193 11.5133H26.0423L26.6 11.572L27.0404 11.7188L27.4514 11.9537L27.833 12.306L28.0972 12.5995L28.3321 13.0105L28.4789 13.3628L28.5669 13.7738V14.3609L28.4789 14.9187L28.3321 15.3004L28.1559 15.6233L27.833 16.0343L27.5982 16.2691L27.2165 16.5333L26.8349 16.7095L26.3945 16.8269L26.189 16.8563H25.4845L25.0148 16.7388L24.5157 16.504L24.1634 16.2398L23.8405 15.9169L23.5763 15.5352L23.3708 15.0949L23.2534 14.6839L23.224 14.5077V13.7738L23.3414 13.3335L23.4882 13.0105L23.6644 12.6876L23.8992 12.394L24.2808 12.0124L24.6918 11.7482L25.1028 11.6014L25.3964 11.5427L25.7193 11.5133ZM21.7863 3.8805H20.1717L16.7076 3.90985L16.6782 3.93921L16.7076 5.99419L16.7663 6.02355H24.311L24.3404 5.96483L23.6945 5.43641L22.168 4.14471L21.7863 3.8805ZM12.4221 3.90982H15.5339L15.5633 4.11531V5.99415L15.5339 6.02351H12.3634L12.334 5.9648V4.2621L12.3634 3.93917L12.4221 3.90982ZM16.0908 8.13737H17.0889L17.3825 8.22544L17.5586 8.34287L17.7348 8.54836L17.7935 8.66579L17.7641 8.90065L17.5586 9.1355L17.3238 9.25293L17.0889 9.31164L16.4137 9.341L16.0321 9.28229L15.7972 9.1355L15.6211 8.93L15.5917 8.87129V8.54836L15.7091 8.37222L15.8853 8.22544L16.0908 8.13737ZM7.66615 12.6877H7.10837L6.72673 12.8051L6.46252 12.9812L6.25702 13.1867L6.05152 13.5097L5.93409 13.8913V14.4197L5.99281 14.6546L6.16895 15.0069L6.43316 15.3004L6.78544 15.5646L7.13772 15.7114L7.51936 15.7408L7.81293 15.6821L8.07714 15.5646L8.45878 15.3004L8.66428 15.0656L8.86978 14.772L8.98721 14.3904V13.95L8.92849 13.7152L8.72299 13.3042L8.45878 13.04L8.22393 12.8638L7.95972 12.7464L7.66615 12.6877ZM26.1313 12.6877H25.6029L25.4267 12.717L25.2212 12.8051L24.957 12.9519L24.6341 13.2748L24.458 13.5977L24.3699 13.95V14.361L24.3992 14.5078L24.546 14.8601L24.8102 15.2124L25.1625 15.5059L25.5148 15.6821L25.779 15.7408H26.0139L26.19 15.7114L26.5423 15.5646L26.8652 15.3591L27.1588 15.0362L27.3643 14.6839L27.4524 14.3904V13.9794L27.3643 13.6565L27.1294 13.2455L26.8359 12.9519L26.5423 12.7757L26.1313 12.6877Z" fill="black"/>
</svg>
