<svg width="88" height="89" viewBox="0 0 88 89" fill="none" xmlns="http://www.w3.org/2000/svg">
<g clip-path="url(#clip0_732_447)">
<path d="M27.5 2.78125H44V17.0491C44 17.6908 43.7479 18.3063 43.2993 18.76C42.8506 19.2138 42.242 19.4688 41.6075 19.4688H29.8925C29.258 19.4688 28.6494 19.2138 28.2007 18.76C27.7521 18.3063 27.5 17.6908 27.5 17.0491V2.78125Z" fill="#38D0FF"/>
<path d="M30.25 69.8125H8.25C6.73418 69.8125 5.27466 69.2038 4.1941 68.1109C3.11259 67.0171 2.5 65.5277 2.5 63.9688V8.34375C2.5 6.78483 3.11258 5.29538 4.19409 4.20158C5.27466 3.10874 6.73418 2.5 8.25 2.5H63.25C64.7658 2.5 66.2253 3.10874 67.3059 4.20158C68.3874 5.29538 69 6.78483 69 8.34375V30.5938C69 30.6774 68.9669 30.752 68.9168 30.8026C68.8677 30.8523 68.8071 30.875 68.75 30.875C68.6929 30.875 68.6323 30.8523 68.5832 30.8026C68.5331 30.752 68.5 30.6774 68.5 30.5938V8.34375C68.5 6.95215 67.9537 5.61191 66.9723 4.61936C65.9899 3.62586 64.6516 3.0625 63.25 3.0625H8.25C6.84844 3.0625 5.51007 3.62586 4.52773 4.61936C3.54634 5.6119 3 6.95214 3 8.34375V63.9688C3 65.3604 3.54634 66.7006 4.52773 67.6931C5.51007 68.6866 6.84844 69.25 8.25 69.25H30.25C30.3071 69.25 30.3677 69.2727 30.4168 69.3224C30.4669 69.373 30.5 69.4476 30.5 69.5312C30.5 69.6149 30.4669 69.6895 30.4168 69.7401C30.3677 69.7898 30.3071 69.8125 30.25 69.8125Z" fill="black" stroke="black" stroke-width="5"/>
<path d="M19.25 61.1875H13.75C13.0207 61.1875 12.3212 60.8945 11.8055 60.3729C11.2897 59.8513 11 59.1439 11 58.4062C11 57.6686 11.2897 56.9612 11.8055 56.4396C12.3212 55.918 13.0207 55.625 13.75 55.625H19.25C19.9793 55.625 20.6788 55.918 21.1945 56.4396C21.7103 56.9612 22 57.6686 22 58.4062C22 59.1439 21.7103 59.8513 21.1945 60.3729C20.6788 60.8945 19.9793 61.1875 19.25 61.1875Z" fill="black"/>
<path d="M63.25 86.5C58.8557 86.5 54.5577 85.1823 50.8994 82.7101C47.2408 80.2377 44.385 76.7206 42.6975 72.6003C41.0099 68.4798 40.5679 63.944 41.4286 59.5679C42.2892 55.1918 44.413 51.176 47.5268 48.0267C50.6404 44.8778 54.6039 42.7366 58.9146 41.8694C63.2251 41.0022 67.6933 41.447 71.7555 43.1487C75.8179 44.8506 79.2948 47.7345 81.743 51.4402C84.1915 55.1462 85.5 59.5063 85.5 63.9688C85.5 69.9535 83.149 75.6875 78.9732 79.9108C74.7983 84.1331 69.1419 86.5 63.25 86.5ZM63.25 42C58.9419 42 54.733 43.2922 51.1555 45.7097C47.5784 48.127 44.7946 51.5599 43.1518 55.5709C41.5092 59.5817 41.0798 63.9934 41.9169 68.2494C42.754 72.5055 44.8209 76.4188 47.8605 79.493C50.9004 82.5675 54.777 84.6645 59.0015 85.5143C63.2262 86.3642 67.6049 85.9278 71.5826 84.2614C75.5601 82.5951 78.9551 79.7754 81.3417 76.1631C83.728 72.5511 85 68.3075 85 63.9688C85 58.1513 82.7153 52.5666 78.6395 48.4445C74.5629 44.3215 69.0276 42 63.25 42Z" fill="black" stroke="black" stroke-width="5"/>
<path d="M63.25 77.875C70.8439 77.875 77 71.649 77 63.9688C77 56.2885 70.8439 50.0625 63.25 50.0625C55.6561 50.0625 49.5 56.2885 49.5 63.9688C49.5 71.649 55.6561 77.875 63.25 77.875Z" fill="#38D0FF"/>
<path d="M63.2495 72.3124C62.8876 72.3145 62.5288 72.2444 62.1938 72.106C61.8587 71.9675 61.554 71.7636 61.297 71.5058L55.797 65.9433C55.2792 65.4196 54.9883 64.7093 54.9883 63.9687C54.9883 63.228 55.2792 62.5177 55.797 61.994C56.3149 61.4702 57.0172 61.176 57.7495 61.176C58.4819 61.176 59.1842 61.4702 59.702 61.994L63.2495 65.6096L72.297 56.4315C72.8149 55.9077 73.5172 55.6135 74.2495 55.6135C74.9819 55.6135 75.6842 55.9077 76.202 56.4315C76.7199 56.9552 77.0108 57.6655 77.0108 58.4062C77.0108 59.1468 76.7199 59.8571 76.202 60.3808L65.202 71.5058C64.9451 71.7636 64.6403 71.9675 64.3053 72.106C63.9702 72.2444 63.6115 72.3145 63.2495 72.3124Z" fill="white"/>
</g>
<defs>
<clipPath id="clip0_732_447">
<rect width="88" height="89" fill="white"/>
</clipPath>
</defs>
</svg>
