<svg width="105" height="105" viewBox="0 0 105 105" fill="none" xmlns="http://www.w3.org/2000/svg">
<g clip-path="url(#clip0_484_871)">
<path fill-rule="evenodd" clip-rule="evenodd" d="M3.80094 64.4833C26.3405 35.9555 63.0326 36.962 94.2028 50.3702C94.7386 50.5995 95.3616 50.3525 95.5908 49.8167C95.8201 49.2809 95.5732 48.658 95.0374 48.4287C62.995 34.6433 25.313 33.8474 2.14241 63.1748C1.78052 63.6309 1.85895 64.2951 2.31742 64.6583C2.77358 65.0202 3.43771 64.9418 3.80094 64.4833Z" fill="black"/>
<path fill-rule="evenodd" clip-rule="evenodd" d="M94.0356 49.1473C92.1898 49.3471 89.8705 49.5723 89.608 49.6055C82.4957 50.506 75.9043 52.4615 69.3704 55.4479C68.8398 55.6896 68.6061 56.3184 68.8479 56.849C69.0896 57.3796 69.7183 57.6132 70.2489 57.3715C76.5839 54.4735 82.976 52.5753 89.8752 51.7027C90.2773 51.6516 95.4913 51.1486 96.538 50.9677C96.9676 50.8955 97.1883 50.7212 97.2365 50.6751C97.5015 50.4401 97.5758 50.1782 97.5932 49.9665C97.6112 49.7275 97.5446 49.3257 97.1904 48.9364C96.8181 48.5306 95.8439 47.8819 95.6112 47.6983C92.108 44.9182 87.9558 42.1207 84.6477 38.7573C81.4926 35.5502 79.1023 31.8238 78.9536 27.0361C78.936 26.4532 78.4463 25.9949 77.8634 26.0125C77.2805 26.0301 76.8222 26.5198 76.8397 27.1027C77.0071 32.4555 79.614 36.6549 83.1395 40.2391C86.4285 43.5822 90.5254 46.3847 94.0356 49.1473Z" fill="black"/>
</g>
<defs>
<clipPath id="clip0_484_871">
<rect width="76.5121" height="76.5121" fill="white" transform="translate(66.2617 104.518) rotate(-150)"/>
</clipPath>
</defs>
</svg>
