<svg width="155" height="155" viewBox="0 0 155 155" fill="none" xmlns="http://www.w3.org/2000/svg">
<g clip-path="url(#clip0_732_488)">
<path d="M30.1832 103.795L41.82 94.1294L43.7631 92.5154L46.0532 90.6131C47.3405 89.5439 49.2684 89.7224 50.3375 91.0095L50.5705 91.29C51.6398 92.5773 51.4613 94.5052 50.1741 95.5743L47.8838 97.4767L45.9409 99.0905L43.6508 100.993C42.3635 102.062 42.1853 103.99 43.2544 105.277L43.4874 105.558C44.5567 106.845 46.4845 107.023 47.7717 105.954L50.0618 104.052L52.0049 102.438L57.6383 97.7584C58.9256 96.6891 60.8535 96.8676 61.9226 98.1548L62.1556 98.4353C63.2249 99.7226 63.0463 101.65 61.7592 102.72L42.5459 118.679L30.1832 103.795Z" fill="#75DEFF"/>
<path d="M56.4789 67.542L82.7936 99.2224C83.202 99.7141 83.1344 100.443 82.6428 100.852L75.4926 106.791C75.0009 107.199 74.2715 107.132 73.8632 106.64L47.5484 74.9596C47.1399 74.4679 47.2076 73.7385 47.6991 73.3302L54.8493 67.3911C55.3412 66.9828 56.0706 67.0504 56.4789 67.542Z" fill="#02B4EB"/>
<path d="M58.5618 70.0494L80.7113 96.7146C82.7507 93.187 83.5465 89.0945 83.0375 85.1119C82.6612 82.166 83.7997 79.2307 86.0841 77.3332L100.257 65.5609C103.449 62.9096 107.295 61.1114 111.408 60.5645C113.444 60.2939 115.427 59.4273 117.083 57.9387C121.162 54.2718 121.74 47.984 118.398 43.6348C114.719 38.8476 107.838 38.1116 103.236 41.9338C101.691 43.2179 100.604 44.8492 99.9954 46.6197C98.6596 50.5048 96.3782 53.9957 93.2178 56.6209L78.9778 68.449C76.6607 70.3737 73.5117 70.9452 70.6586 69.9787C66.7652 68.6596 62.4923 68.6602 58.5618 70.0494Z" fill="#015C78"/>
<path d="M112.619 47.6785C111.564 46.4077 109.678 46.2332 108.407 47.2888C107.136 48.3443 106.962 50.2302 108.017 51.501C109.073 52.7718 110.959 52.9463 112.23 51.8907C113.5 50.8352 113.675 48.9493 112.619 47.6785Z" fill="#02B4EB"/>
<path opacity="0.31" d="M56.4785 67.5421L82.7932 99.2226C83.2017 99.7143 83.134 100.444 82.6425 100.852L79.9575 103.082C79.4658 103.491 78.7364 103.423 78.3281 102.931L52.0132 71.2509C51.6048 70.7592 51.6724 70.0298 52.164 69.6215L54.849 67.3912C55.3408 66.983 56.0702 67.0506 56.4785 67.5421Z" fill="#02B4EB"/>
<path opacity="0.31" d="M47.5484 74.9599L48.9053 76.5936L24.4973 96.8677L29.2637 102.606L53.6716 82.332L52.3146 80.6984C51.9062 80.2067 51.9738 79.4773 52.4654 79.069L56.9306 75.3601L59.6156 73.1298C60.1071 72.7215 60.8367 72.789 61.245 73.2806L56.4786 67.5423C56.0701 67.0506 55.3407 66.9832 54.8492 67.3915L52.1641 69.6218L47.699 73.3307C47.2076 73.7388 47.1401 74.4684 47.5484 74.9599Z" fill="#02B4EB"/>
<path opacity="0.31" d="M70.6005 70.0269C66.707 68.7081 62.4343 68.7088 58.5036 70.0979L62.1821 74.5264C65.4448 73.8309 68.8408 74.0337 71.989 75.1C74.8421 76.0665 77.9909 75.4951 80.3082 73.5703L94.5482 61.7422C97.7085 59.1171 99.99 55.6261 101.326 51.741C101.935 49.9704 103.021 48.3391 104.567 47.0551C109.168 43.2328 116.05 43.9687 119.728 48.7561C120.017 49.1324 120.275 49.5238 120.506 49.9263C120.469 47.7285 119.759 45.5307 118.339 43.6832C114.661 38.8959 107.78 38.1599 103.178 41.9821C101.632 43.2662 100.546 44.8975 99.9371 46.6681C98.6012 50.5531 96.3199 54.0441 93.1595 56.6692L78.9195 68.4974C76.6024 70.422 73.4535 70.9934 70.6005 70.0269Z" fill="#02B4EB"/>
<path d="M45.5549 75.1113L46.6097 76.3812L23.4555 95.6138C22.763 96.189 22.6681 97.2165 23.2432 97.9088L28.712 104.493C28.7692 104.614 28.8404 104.729 28.9296 104.837C29.0189 104.944 29.1198 105.036 29.2279 105.114L41.0752 119.377C41.1324 119.498 41.2036 119.614 41.2927 119.721C41.3819 119.828 41.4828 119.92 41.5909 119.998L46.8442 126.322C47.4193 127.015 48.4468 127.11 49.1393 126.535L72.2935 107.302L73.3483 108.572C73.9234 109.264 74.9508 109.359 75.6434 108.784L84.5737 101.366C85.2662 100.791 85.3611 99.7637 84.786 99.0714L82.6642 96.5169C84.4538 92.9567 85.1614 88.8783 84.6538 84.9054C84.3452 82.4905 85.2691 80.1288 87.125 78.5872L101.298 66.8148C104.356 64.2743 107.927 62.672 111.623 62.1806C114.065 61.8559 116.329 60.8082 118.172 59.1511C122.883 54.9161 123.549 47.6644 119.69 42.6423C119.592 42.5149 119.492 42.3897 119.39 42.2669C117.361 39.8235 114.525 38.2917 111.356 37.9377C108.025 37.5657 104.772 38.5398 102.195 40.6807C100.472 42.1115 99.1785 43.9821 98.4536 46.09C97.1742 49.8106 95.0034 53.0186 92.1759 55.3671L77.936 67.1953C76.0468 68.7645 73.5216 69.2279 71.1812 68.4351C67.2848 67.1151 63.0436 67.0292 59.1148 68.1656L56.993 65.6111C56.4179 64.9188 55.3904 64.8236 54.6979 65.3988L45.7675 72.8166C45.0746 73.3914 44.9797 74.4188 45.5549 75.1113ZM70.1353 71.5221C73.5566 72.6815 77.2514 72.0011 80.0186 69.7026L94.2585 57.8744C97.5457 55.1439 100.062 51.4353 101.536 47.1498C102.067 45.6065 103.014 44.2365 104.277 43.1876C106.167 41.6182 108.552 40.904 110.994 41.1767C113.434 41.4492 115.606 42.675 117.105 44.6281C119.933 48.3088 119.445 53.6231 115.993 56.7268C114.64 57.9428 112.981 58.711 111.193 58.9487C106.888 59.5211 102.746 61.3741 99.2152 64.307L85.0424 76.0794C82.3238 78.3375 80.97 81.7913 81.4207 85.3183C81.7846 88.1671 81.406 91.0807 80.3508 93.7304L61.4285 70.9505C64.3107 70.3816 67.3292 70.5717 70.1353 71.5221ZM42.0009 106.319L42.2339 106.599C43.8801 108.581 46.8318 108.854 48.8136 107.208L58.6801 99.0127C59.2793 98.515 60.1716 98.5975 60.6693 99.1967L60.9024 99.4774C61.4001 100.077 61.3176 100.969 60.7184 101.467L42.7993 116.351L32.5191 103.974L47.0945 91.8676C47.6937 91.3699 48.586 91.4524 49.0837 92.0516L49.3166 92.3319C49.8143 92.9311 49.7317 93.8234 49.1326 94.3211L42.6095 99.7394C40.6277 101.386 40.3548 104.337 42.0009 106.319ZM48.3105 122.986L44.8821 118.858L62.8011 103.974C64.7829 102.328 65.056 99.3765 63.4098 97.3947L63.1767 97.114C61.5306 95.1322 58.5789 94.8591 56.5971 96.5053L46.7305 104.701C46.1314 105.198 45.2391 105.116 44.7413 104.517L44.5084 104.236C44.0106 103.637 44.0932 102.745 44.6924 102.247L51.2156 96.8286C53.1974 95.1824 53.4705 92.2307 51.8243 90.2489L51.5913 89.9684C49.9452 87.9866 46.9935 87.7135 45.0117 89.3597L30.4362 101.467L26.7924 97.0797L48.6929 78.8885L70.2111 104.794L48.3105 122.986ZM55.5266 68.9472L81.2373 99.9004L74.8145 105.235L49.1039 74.2822L55.5266 68.9472Z" fill="black"/>
<path d="M113.874 46.6371C112.246 44.677 109.326 44.4069 107.366 46.0352C105.406 47.6633 105.136 50.5824 106.764 52.5425C108.392 54.5025 111.311 54.7726 113.271 53.1445C115.232 51.5163 115.502 48.5971 113.874 46.6371ZM109.272 50.4595C108.792 49.882 108.872 49.0221 109.449 48.5426C110.027 48.0629 110.887 48.1425 111.366 48.7198C111.846 49.2973 111.766 50.1573 111.189 50.6368C110.611 51.1164 109.752 51.0369 109.272 50.4595Z" fill="black"/>
</g>
<defs>
<clipPath id="clip0_732_488">
<rect width="109.566" height="109.566" fill="white" transform="translate(70.0078 154.291) rotate(-129.714)"/>
</clipPath>
</defs>
</svg>
