<svg width="154" height="155" viewBox="0 0 154 155" fill="none" xmlns="http://www.w3.org/2000/svg">
<g clip-path="url(#clip0_732_538)">
<path d="M114.538 99.6981L54.791 39.9507L39.8542 54.8875L99.6016 114.635L114.538 99.6981Z" fill="white" stroke="#00A0E9" stroke-width="2.54001" stroke-miterlimit="10" stroke-linejoin="round"/>
<path d="M47.124 47.6196L51.0009 51.4965" stroke="#00A0E9" stroke-width="2.54001" stroke-miterlimit="10" stroke-linejoin="round"/>
<path d="M56.4365 56.9326L60.3144 60.8105" stroke="#00A0E9" stroke-width="2.54001" stroke-miterlimit="10" stroke-linejoin="round"/>
<path d="M65.751 66.2466L69.6278 70.1234" stroke="#00A0E9" stroke-width="2.54001" stroke-miterlimit="10" stroke-linejoin="round"/>
<path d="M75.0635 75.5593L78.9425 79.4383" stroke="#00A0E9" stroke-width="2.54001" stroke-miterlimit="10" stroke-linejoin="round"/>
<path d="M84.3789 84.8745L88.2557 88.7514" stroke="#00A0E9" stroke-width="2.54001" stroke-miterlimit="10" stroke-linejoin="round"/>
<path d="M93.6924 94.1885L97.5692 98.0653" stroke="#00A0E9" stroke-width="2.54001" stroke-miterlimit="10" stroke-linejoin="round"/>
<path d="M103.006 103.501L106.885 107.38" stroke="#00A0E9" stroke-width="2.54001" stroke-miterlimit="10" stroke-linejoin="round"/>
<path d="M114.324 55.0628L99.3867 40.126L39.626 99.8867L54.5629 114.824L114.324 55.0628Z" fill="white" stroke="#00A0E9" stroke-width="2.54001" stroke-miterlimit="10" stroke-linejoin="round"/>
<path d="M106.883 47.6218L103.006 51.4987" stroke="#00A0E9" stroke-width="2.54001" stroke-miterlimit="10" stroke-linejoin="round"/>
<path d="M97.5703 56.9348L93.6924 60.8127" stroke="#00A0E9" stroke-width="2.54001" stroke-miterlimit="10" stroke-linejoin="round"/>
<path d="M88.2568 66.2476L84.3778 70.1266" stroke="#00A0E9" stroke-width="2.54001" stroke-miterlimit="10" stroke-linejoin="round"/>
<path d="M78.9434 75.5615L75.0654 79.4394" stroke="#00A0E9" stroke-width="2.54001" stroke-miterlimit="10" stroke-linejoin="round"/>
<path d="M69.6279 84.8767L65.7511 88.7535" stroke="#00A0E9" stroke-width="2.54001" stroke-miterlimit="10" stroke-linejoin="round"/>
<path d="M60.3145 94.1907L56.4376 98.0675" stroke="#00A0E9" stroke-width="2.54001" stroke-miterlimit="10" stroke-linejoin="round"/>
<path d="M51.001 103.503L47.122 107.382" stroke="#00A0E9" stroke-width="2.54001" stroke-miterlimit="10" stroke-linejoin="round"/>
</g>
<defs>
<clipPath id="clip0_732_538">
<rect width="108.894" height="108.894" fill="white" transform="translate(77 0.5) rotate(45)"/>
</clipPath>
</defs>
</svg>
