<svg width="119" height="119" viewBox="0 0 119 119" fill="none" xmlns="http://www.w3.org/2000/svg">
<g clip-path="url(#clip0_732_559)">
<path d="M59.9216 81.4353C67.4561 81.4353 73.564 75.3787 73.564 67.9076C73.564 60.4364 67.4561 54.3799 59.9216 54.3799C52.3872 54.3799 46.2793 60.4364 46.2793 67.9076C46.2793 75.3787 52.3872 81.4353 59.9216 81.4353Z" fill="white"/>
<path fill-rule="evenodd" clip-rule="evenodd" d="M30.9917 16.9578L60.4466 -0.317383L88.5285 16.7758L88.7077 49.3249L74.7659 58.1515C74.7659 58.1515 66.5658 50.4619 59.1067 50.4605C51.6462 50.459 44.9482 58.1457 44.9482 58.1457L31.7999 49.3636L30.9917 16.9578ZM34.4134 46.3978L58.5514 32.1242L58.3007 4.30104L33.5159 18.9153L34.4134 46.3978ZM35.7628 49.9121C37.1109 49.9121 44.6119 54.9714 44.6119 54.9714C44.6119 54.9714 51.3874 47.4932 59.3803 47.7367C67.3725 47.9802 75.1015 55.1696 75.1015 55.1696L85.6614 49.0009L60.2202 35.4747C60.2202 35.4747 34.4141 49.9121 35.7628 49.9121ZM29.8148 119.323L0 102.666L0.88712 70.004L29.9623 52.8443L43.9047 61.1349C43.9047 61.1349 41.3872 71.6558 45.1156 78.0628C48.8447 84.4698 58.8088 86.7432 58.8088 86.7432L58.4504 102.425L29.8148 119.323ZM53.8157 101.664L29.2801 88.0733L5.10666 102.199L30.2617 116.177L53.815 101.665L53.8157 101.664ZM56.2101 98.7485C55.5354 97.591 56.2042 88.6196 56.2042 88.6196C56.2042 88.6196 46.384 86.1743 42.6002 79.1889C38.8173 72.2042 41.1328 62.3378 41.1328 62.3378L30.4645 56.3534L31.3722 84.9642C31.3722 84.9642 56.8841 99.906 56.2101 98.7478V98.7485ZM118.46 68.8735L118.82 102.805L89.8507 118.375L61.3337 102.254L60.5963 86.5984C60.5963 86.5984 70.5751 84.4998 74.3065 78.0943C78.0379 71.6887 76.2467 60.996 76.2467 60.996L89.7533 53.3649L118.46 68.8735ZM91.0372 57.092L91.4354 84.9576L115.859 98.6535L115.489 70.0632L91.0372 57.092ZM88.0307 57.2258L79.1875 62.2947C79.1875 62.2947 80.7575 72.9494 76.5483 79.6905C72.3391 86.4325 63.7695 88.3783 63.7695 88.3783L63.8771 99.0688L87.6738 84.7148L88.0307 57.2258Z" fill="white"/>
</g>
<defs>
<clipPath id="clip0_732_559">
<rect width="119" height="118" fill="white" transform="translate(0 0.5)"/>
</clipPath>
</defs>
</svg>
