<svg width="90" height="90" viewBox="0 0 90 90" fill="none" xmlns="http://www.w3.org/2000/svg">
<g clip-path="url(#clip0_732_471)">
<path d="M42.6839 2.20295C41.606 1.12506 39.8584 1.12506 38.7805 2.20295L29.5682 11.4153C28.4903 12.4932 28.4903 14.2408 29.5682 15.3187L74.1305 59.8808C75.2084 60.9587 76.956 60.9587 78.0339 59.8808L87.2462 50.6685C88.3241 49.5906 88.3241 47.843 87.2462 46.7651L42.6839 2.20295Z" fill="#00CCFF"/>
<path d="M77.3091 56.7023L32.747 12.14C31.6691 11.0621 31.6691 9.31446 32.747 8.23657L29.5682 11.4154C28.4903 12.4933 28.4903 14.2409 29.5682 15.3188L74.1305 59.8809C75.2084 60.9588 76.956 60.9588 78.0339 59.8809L81.2127 56.7021C80.1348 57.7802 78.387 57.7802 77.3091 56.7023Z" fill="#02B4EB"/>
<path d="M24.809 56.8232L33.7289 65.743C34.1631 66.1774 34.8672 66.1774 35.3016 65.743L37.0088 64.0359C37.443 63.6017 37.443 62.8975 37.0088 62.4631L28.0889 53.5433C27.6548 53.1089 26.9506 53.1089 26.5162 53.5433L24.809 55.2505C24.3749 55.6847 24.3749 56.3888 24.809 56.8232Z" fill="#00CCFF"/>
<path d="M37.0095 62.4632L33.8307 59.2844C34.2649 59.7186 34.265 60.4228 33.8307 60.8571L32.1235 62.5643C31.6891 62.9987 30.9851 62.9987 30.5508 62.5643L33.7296 65.7432C34.1638 66.1773 34.868 66.1775 35.3023 65.7432L37.0095 64.036C37.4439 63.6016 37.4439 62.8974 37.0095 62.4632Z" fill="#E58200"/>
<path d="M25.8378 57.8516L32.701 64.7148L11.654 87.8453C10.7977 88.8167 9.29921 88.8639 8.38356 87.9483L2.60458 82.1693C1.68893 81.2537 1.73604 79.7551 2.70758 78.8989L25.8378 57.8516Z" fill="#00CCFF"/>
<path d="M11.6541 87.8453L32.7013 64.715L29.5225 61.5361L8.47549 84.6665C7.61926 85.6379 6.12072 85.6851 5.20508 84.7695L8.38391 87.9483C9.29955 88.864 10.7979 88.8167 11.6541 87.8453Z" fill="#E58200"/>
<path d="M23.8291 59.6795L30.8734 66.7236L32.7015 64.7149L25.8379 57.8516L23.8291 59.6795Z" fill="#00D0FF"/>
<path d="M30.8732 66.7236L32.7013 64.715L29.5225 61.5361L27.6943 63.545L30.8732 66.7236Z" fill="#00CCFF"/>
<path d="M88.2326 45.7791L76.2623 33.8089C75.7177 33.2645 74.8346 33.2645 74.2902 33.8089C73.7456 34.3536 73.7456 35.2366 74.2902 35.7812L86.2605 47.7513C86.5184 48.0092 86.6604 48.352 86.6604 48.7167C86.6604 49.0815 86.5184 49.4244 86.2605 49.6821L77.0482 58.8946C76.7903 59.1525 76.4475 59.2944 76.0828 59.2944C75.7182 59.2944 75.3751 59.1523 75.1172 58.8945L30.5547 14.3327C30.0223 13.8001 30.0223 12.9338 30.5547 12.4014L35.2226 7.7335C35.223 7.73314 35.2231 7.73297 35.2235 7.73262C35.2238 7.73227 35.224 7.73209 35.2244 7.73174L39.7671 3.18902C40.2995 2.65658 41.1658 2.65658 41.6984 3.18902L70.5269 32.0175C71.0714 32.5619 71.9546 32.5619 72.499 32.0175C73.0435 31.4728 73.0435 30.5898 72.499 30.0452L43.6703 1.21676C42.8856 0.43207 41.8422 0 40.7325 0C39.6228 0 38.5793 0.43207 37.7946 1.21676L34.2372 4.77439L33.7712 4.3084C31.9963 2.53354 29.1082 2.53354 27.3334 4.3084L18.9331 12.7086C17.1583 14.4837 17.1583 17.3716 18.9331 19.1466L41.3078 41.5215C42.0536 42.2673 42.4646 43.2589 42.4646 44.3137C42.4646 45.3686 42.0538 46.3604 41.3078 47.1062L32.4662 55.9478L29.0757 52.5574C28.6023 52.084 27.9729 51.8235 27.3035 51.8235C26.6339 51.8235 26.0045 52.084 25.5311 52.5574L23.8239 54.2645C22.8483 55.2401 22.8467 56.8262 23.8186 57.8041L14.4646 66.3156C13.8949 66.8338 13.8532 67.7159 14.3716 68.2857C14.89 68.8553 15.7722 68.8971 16.3418 68.3786L25.7928 59.779L30.7746 64.7608L10.6227 86.9066C10.6178 86.9121 10.6129 86.9175 10.608 86.9231C10.3965 87.1631 10.1348 87.206 9.99748 87.2104C9.86002 87.2154 9.59617 87.1882 9.36994 86.962L3.59078 81.183C3.36455 80.9568 3.33801 80.6927 3.3424 80.5555C3.34662 80.4183 3.38986 80.1564 3.62963 79.945C3.63525 79.9404 3.6407 79.9353 3.64615 79.9302L12.4352 71.9327C13.0047 71.4145 13.0464 70.5322 12.5282 69.9625C12.0098 69.393 11.1279 69.3513 10.558 69.8697L1.77619 77.8605C1.03105 78.522 0.585976 79.4714 0.554511 80.4677C0.523046 81.4681 0.910819 82.4476 1.61851 83.1554L7.3975 88.9344C8.07865 89.6154 9.01117 90 9.97199 89.9998C10.0096 89.9998 10.0474 89.9993 10.0852 89.9981C11.0813 89.9666 12.0307 89.5215 12.6922 88.7764L32.7494 66.7341C33.222 67.2042 33.8491 67.4633 34.516 67.4633C35.1855 67.4633 35.815 67.2026 36.2884 66.7292L37.9954 65.022C38.4688 64.5486 38.7296 63.9192 38.7296 63.2496C38.7296 62.5801 38.4689 61.9506 37.9956 61.4772L34.4386 57.9203L43.2803 49.0787C44.5531 47.8058 45.2539 46.1139 45.2539 44.3139C45.2539 42.5139 44.5529 40.822 43.2803 39.5492L20.9054 17.1742C20.2179 16.4869 20.2179 15.3682 20.9054 14.6811L29.3056 6.28084C29.9929 5.59336 31.1116 5.59336 31.7989 6.28066L32.2649 6.74666L28.5823 10.4293C26.9625 12.0491 26.9625 14.6849 28.5823 16.3049L73.1446 60.8671C73.9293 61.6518 74.9726 62.0838 76.0824 62.0838C77.1923 62.0838 78.2358 61.6518 79.0203 60.8671L82.7029 57.1845L83.5749 58.0563C83.8472 58.3286 84.2042 58.4647 84.5611 58.4647C84.9179 58.4647 85.2749 58.3286 85.5472 58.0562C86.0918 57.5116 86.0918 56.6285 85.5472 56.0841L84.6753 55.2122L88.2326 51.6549C89.8526 50.0349 89.8526 47.3991 88.2326 45.7791ZM34.516 64.5572L25.9957 56.037L27.3033 54.7295L35.8236 63.2498L34.516 64.5572Z" fill="#1A1A1A"/>
<path d="M80.9059 52.3805C79.8201 53.4663 78.0596 53.4663 76.9738 52.3805L38.4364 13.8431C37.3506 12.7573 37.3506 10.9968 38.4364 9.91103C39.5222 8.82523 41.2827 8.82523 42.3685 9.91103L80.9059 48.4484C81.9917 49.5344 81.9917 51.2947 80.9059 52.3805Z" fill="#38D0FF"/>
</g>
<defs>
<clipPath id="clip0_732_471">
<rect width="90" height="90" fill="white"/>
</clipPath>
</defs>
</svg>
