<svg width="99" height="99" viewBox="0 0 99 99" fill="none" xmlns="http://www.w3.org/2000/svg">
<path d="M49.5 81.1181C63.9787 72.3937 71.775 65.7731 71.775 55.6875V23.5125C66.0206 22.2131 58.3481 21.0375 49.5 21.0375V81.1181ZM49.5 6.1875C28.2769 6.1875 12.375 12.375 12.375 12.375C12.375 12.375 12.375 51.8512 12.375 55.6875C12.375 82.2319 42.3225 92.3175 49.5 99C56.6775 92.4413 86.625 81.9225 86.625 55.6875C86.625 51.8512 86.625 12.375 86.625 12.375C86.625 12.375 71.3419 6.1875 49.5 6.1875ZM77.9625 55.6875C77.9625 69.9806 66.0206 78.3956 52.7175 86.4394C51.6037 87.12 50.49 87.7387 49.5 88.3575C48.3862 87.6769 47.2725 86.9963 45.9731 86.1919C35.4544 79.8806 21.0375 71.2181 21.0375 55.6875V18.6862C26.9775 17.0775 37.2487 14.85 49.5 14.85C61.9369 14.85 72.0844 17.0156 77.9625 18.6862V55.6875Z" fill="black"/>
<path d="M88.2305 71.7187C86.1992 70.625 83.875 70 81.4141 70C80.9062 70 80.3789 70.0195 79.8906 70.0781C72.957 70.8008 67.4883 76.4648 67.0391 83.4766C67.0195 83.7891 67 84.082 67 84.3945C67 87.0898 67.7422 89.5898 69.0117 91.7578C71.5312 95.9766 76.1406 98.8086 81.3945 98.8086C89.3438 98.8086 95.8086 92.3633 95.8086 84.3945C95.8281 78.9063 92.7617 74.1406 88.2305 71.7187ZM89.3828 81.1719L80.7109 89.8438C80.418 90.1367 80.0273 90.293 79.5977 90.293C79.168 90.293 78.7773 90.1367 78.4844 89.8438L73.4648 84.8242C72.8594 84.2187 72.8594 83.2227 73.4648 82.6172C74.0703 82.0117 75.0664 82.0117 75.6719 82.6172L79.5977 86.543L87.1563 78.9844C87.7617 78.3789 88.7578 78.3789 89.3633 78.9844C89.9883 79.5703 89.9883 80.5664 89.3828 81.1719Z" fill="#02B4EB"/>
</svg>
