<svg width="388" height="41" viewBox="0 0 388 41" fill="none" xmlns="http://www.w3.org/2000/svg">
<path fill-rule="evenodd" clip-rule="evenodd" d="M19 1.55837C14.1712 1.9355 9.84936 4.1178 6.70865 7.43098L13.2497 12.905C14.7931 11.4313 16.7851 10.4232 19 10.1064L19 1.55837ZM12.5586 13.6307L6.03949 8.17495C3.31274 11.371 1.62695 15.4822 1.50686 19.9837L10.0287 19.7174C10.1996 17.3976 11.1242 15.2874 12.5586 13.6307ZM7.36105 34.2248C3.85751 30.8699 1.63617 26.1867 1.50604 20.9842L10.0022 20.7187C10.0627 23.6797 11.3489 26.3396 13.374 28.2118L7.36105 34.2248ZM19 40.946C14.4367 40.616 10.2874 38.7923 7.03863 35.9614L7 36L6.29291 35.2929L6.30014 35.2857C2.4169 31.5554 -1.28425e-06 26.3099 -1.79217e-06 20.5C-2.73785e-06 9.68266 8.37848 0.822188 19 0.0540751L19 3.2259e-05L20 3.21716e-05L20 0.0060098C20.1662 0.00203106 20.3329 3.21425e-05 20.5 3.21279e-05C31.8218 3.11381e-05 41 9.17819 41 20.5C41 26.3099 38.5831 31.5554 34.6999 35.2857L34.7071 35.2929L34 36L33.9614 35.9614C30.36 39.0995 25.6519 41 20.5 41C20.3329 41 20.1662 40.998 20 40.9941L20 41L19 41L19 40.946ZM39.494 20.9842L30.9978 20.7187C30.9373 23.6797 29.6511 26.3396 27.626 28.2118L33.6389 34.2248C37.1425 30.8699 39.3638 26.1867 39.494 20.9842ZM30.9713 19.7174L39.4931 19.9837C39.373 15.4822 37.6873 11.371 34.9605 8.17495L28.4414 13.6307C29.8758 15.2874 30.8004 17.3976 30.9713 19.7174ZM27.7503 12.905L34.2913 7.43097C30.8287 3.77821 25.9304 1.50003 20.5 1.50003C20.3328 1.50003 20.1661 1.50219 20 1.50648L20 10.0117C20.1657 10.004 20.3324 10 20.5 10C23.3118 10 25.8655 11.1053 27.7503 12.905ZM26.8574 28.8574L32.898 34.898C29.5703 37.766 25.2377 39.5 20.5 39.5C20.3328 39.5 20.1661 39.4979 20 39.4936L20 30.9883C20.1657 30.9961 20.3324 31 20.5 31C22.8896 31 25.0927 30.2018 26.8574 28.8574ZM14.1426 28.8574L8.10202 34.898C11.0751 37.4604 14.8504 39.1176 19 39.4417L19 30.8937C17.1912 30.635 15.5312 29.9153 14.1426 28.8574ZM67 21.0001L67 38L69 38L69 21.0001L388 21L388 19L69 19L69 3.00003L67 3.00003L67 19L50 19L50 21.0001L67 21.0001ZM11.5 20.5C11.5 15.5295 15.5294 11.5 20.5 11.5C25.4705 11.5 29.5 15.5295 29.5 20.5C29.5 25.4706 25.4705 29.5 20.5 29.5C15.5294 29.5 11.5 25.4706 11.5 20.5Z" fill="url(#paint0_linear_115_863)"/>
<defs>
<linearGradient id="paint0_linear_115_863" x1="2.08612e-05" y1="20.4308" x2="388" y2="20.5691" gradientUnits="userSpaceOnUse">
<stop stop-color="#02C3FF"/>
<stop offset="1" stop-color="#819297"/>
</linearGradient>
</defs>
</svg>
