<svg width="73" height="73" viewBox="0 0 73 73" fill="none" xmlns="http://www.w3.org/2000/svg">
<g clip-path="url(#clip0_115_765)">
<path fill-rule="evenodd" clip-rule="evenodd" d="M29.9793 46.8653C34.3579 52.4658 39.919 57.6005 46.6118 59.9831C49.047 60.8503 51.5325 61.1215 54.0747 61.4221C54.2529 61.4434 54.4155 61.3155 54.4372 61.1365C54.4581 60.9571 54.3301 60.7945 54.1507 60.7736C51.6578 60.4785 49.219 60.2183 46.831 59.3679C40.2331 57.0191 34.7634 51.9392 30.4551 46.4143L30.5348 46.3412C31.4017 45.5495 31.7544 43.9967 31.6926 42.179C31.6045 39.5736 30.7005 36.4216 29.536 34.391C29.0126 33.4787 28.4302 32.79 27.8518 32.4473C27.4011 32.1798 26.9454 32.1089 26.5051 32.2566C25.5671 32.5719 25.1388 33.6202 25.1483 35.0561C25.1675 38.059 26.9996 42.8002 28.3132 44.6369C28.7235 45.2103 29.1458 45.7823 29.5805 46.3494C29.4318 46.4928 29.2856 46.6326 29.1373 46.7621C28.7137 47.1299 28.2651 47.4174 27.6198 47.4674C26.6141 47.5442 25.6018 47.1926 24.648 46.6441C23.1601 45.7872 21.8174 44.4459 20.8627 43.3805C15.5464 37.4467 14.555 30.738 15.0976 24.6728C15.6467 18.5476 17.7538 13.0709 18.6071 9.67055C18.6514 9.49574 18.5446 9.31893 18.3698 9.27469C18.195 9.23045 18.0174 9.33688 17.9739 9.51204C17.1148 12.9342 14.9997 18.4487 14.4478 24.6149C13.8895 30.841 14.9191 37.7248 20.3758 43.8163C21.3701 44.9262 22.7725 46.3178 24.3219 47.21C25.3949 47.8272 26.5383 48.205 27.6701 48.1184C28.6858 48.0403 29.3108 47.5005 29.9793 46.8653ZM30.0549 45.895L30.095 45.859C30.8529 45.167 31.094 43.7907 31.0397 42.2013C30.9551 39.6977 30.0887 36.6681 28.9689 34.716C28.5853 34.0465 28.1744 33.5066 27.7524 33.1709C27.404 32.8945 27.0554 32.7606 26.7135 32.8761C26.3901 32.9837 26.1726 33.2312 26.0307 33.5679C25.8634 33.9629 25.7976 34.4715 25.801 35.0515C25.8197 37.937 27.5819 42.4921 28.8443 44.2569C29.2368 44.8047 29.64 45.3515 30.0549 45.895Z" fill="#FF9900"/>
<path fill-rule="evenodd" clip-rule="evenodd" d="M55.2379 60.8263C55.156 60.9434 54.9981 61.0669 54.8268 61.1976C54.4191 61.5095 53.9028 61.806 53.6651 61.9557C53.5124 62.0523 53.4677 62.2541 53.5636 62.4065C53.6602 62.5592 53.8616 62.6047 54.0144 62.5081C54.3053 62.3244 54.9926 61.928 55.4362 61.5445C55.6739 61.3387 55.8432 61.1264 55.9042 60.9476C56.0086 60.6434 55.856 60.3585 55.3901 60.1688C54.8389 59.9447 53.7071 59.7772 53.0021 59.0793C52.8745 58.9525 52.6667 58.9539 52.5407 59.0818C52.4135 59.2102 52.4145 59.4169 52.5428 59.5441C53.2152 60.209 54.2234 60.4689 54.8853 60.6821C55.0111 60.7228 55.1538 60.7869 55.2379 60.8263Z" fill="#FF9900"/>
</g>
<defs>
<clipPath id="clip0_115_765">
<rect width="55.3854" height="55.3854" fill="white" transform="translate(22.1107) rotate(23.5291)"/>
</clipPath>
</defs>
</svg>
