<svg width="38" height="38" viewBox="0 0 38 38" fill="none" xmlns="http://www.w3.org/2000/svg">
<path d="M17.828 32.3H6.5313C4.69498 32.3 3.2063 30.8113 3.2063 28.975V9.02495C3.2063 7.18863 4.69498 5.69995 6.5313 5.69995H26.4813C28.3176 5.69995 29.8063 7.18863 29.8063 9.02495V15.675" stroke="black" stroke-width="2" stroke-linecap="round" stroke-linejoin="round"/>
<path d="M21.4938 27.3125C21.4938 32.4316 27.0354 35.6311 31.4688 33.0716C33.5263 31.8836 34.7938 29.6882 34.7938 27.3125C34.7938 22.1933 29.2522 18.9939 24.8188 21.5534C22.7613 22.7414 21.4938 24.9367 21.4938 27.3125Z" stroke="black" stroke-width="2" stroke-linecap="round" stroke-linejoin="round"/>
<path d="M23.1562 2.375V9.025" stroke="black" stroke-width="2" stroke-linecap="round" stroke-linejoin="round"/>
<path d="M9.8562 2.375V9.025" stroke="black" stroke-width="2" stroke-linecap="round" stroke-linejoin="round"/>
<path d="M3.2063 15.675H29.8063" stroke="black" stroke-width="2" stroke-linecap="round" stroke-linejoin="round"/>
<path d="M28.1438 24.812V27.3124L29.8063 28.9749" stroke="black" stroke-width="2" stroke-linecap="round" stroke-linejoin="round"/>
</svg>
