<svg width="388" height="41" viewBox="0 0 388 41" fill="none" xmlns="http://www.w3.org/2000/svg">
<path fill-rule="evenodd" clip-rule="evenodd" d="M369 39.4417C373.829 39.0645 378.151 36.8822 381.291 33.5691L374.75 28.095C373.207 29.5688 371.215 30.5768 369 30.8937V39.4417ZM375.441 27.3694L381.961 32.8251C384.687 29.629 386.373 25.5178 386.493 21.0163L377.971 21.2826C377.8 23.6024 376.876 25.7126 375.441 27.3694ZM380.639 6.77524C384.142 10.1302 386.364 14.8133 386.494 20.0158L377.998 20.2813C377.937 17.3204 376.651 14.6604 374.626 12.7882L380.639 6.77524ZM369 0.0540418C373.563 0.384046 377.713 2.20776 380.961 5.03863L381 5L381.707 5.70711L381.7 5.71435C385.583 9.44468 388 14.6901 388 20.5C388 31.3174 379.622 40.1778 369 40.946V41H368V40.994C367.834 40.998 367.667 41 367.5 41C356.178 41 347 31.8218 347 20.5C347 14.6901 349.417 9.44468 353.3 5.71435L353.293 5.70711L354 5L354.039 5.03863C357.64 1.90048 362.348 0 367.5 0C367.667 0 367.834 0.00200028 368 0.0059782V0L369 0V0.0540418ZM348.506 20.0158L357.002 20.2813C357.063 17.3204 358.349 14.6604 360.374 12.7882L354.361 6.77524C350.858 10.1302 348.636 14.8133 348.506 20.0158ZM357.029 21.2826L348.507 21.0163C348.627 25.5178 350.313 29.629 353.039 32.8251L359.559 27.3694C358.124 25.7126 357.2 23.6024 357.029 21.2826ZM360.25 28.095L353.709 33.5691C357.171 37.2218 362.07 39.5 367.5 39.5C367.667 39.5 367.834 39.4978 368 39.4935V30.9883C367.834 30.9961 367.668 31 367.5 31C364.688 31 362.135 29.8947 360.25 28.095ZM361.143 12.1426L355.102 6.10201C358.43 3.23402 362.762 1.5 367.5 1.5C367.667 1.5 367.834 1.50216 368 1.50645V10.0117C367.834 10.0039 367.668 10 367.5 10C365.11 10 362.907 10.7982 361.143 12.1426ZM373.857 12.1426L379.898 6.10201C376.925 3.53963 373.15 1.88242 369 1.55834V10.1063C370.809 10.3651 372.469 11.0848 373.857 12.1426ZM321 20V3L319 3V20L0 20L0 22L319 22V38L321 38V22L338 22V20L321 20ZM376.5 20.5C376.5 25.4706 372.471 29.5 367.5 29.5C362.529 29.5 358.5 25.4706 358.5 20.5C358.5 15.5294 362.529 11.5 367.5 11.5C372.471 11.5 376.5 15.5294 376.5 20.5Z" fill="url(#paint0_linear_1_229)"/>
<defs>
<linearGradient id="paint0_linear_1_229" x1="388" y1="20.5692" x2="-1.96312e-05" y2="20.4309" gradientUnits="userSpaceOnUse">
<stop stop-color="#02C3FF"/>
<stop offset="1" stop-color="transparent"/>
</linearGradient>
</defs>
</svg>
