<svg width="47" height="43" viewBox="0 0 47 43" fill="none" xmlns="http://www.w3.org/2000/svg">
<path d="M16.1562 13.1016C16.1563 14.8835 16.93 16.5924 18.3072 17.8524C19.6844 19.1124 21.5523 19.8203 23.5 19.8203C25.4477 19.8203 27.3156 19.1124 28.6928 17.8524C30.07 16.5924 30.8438 14.8835 30.8438 13.1016C30.8438 11.3196 30.07 9.6107 28.6928 8.35069C27.3156 7.09068 25.4477 6.38281 23.5 6.38281C21.5523 6.38281 19.6844 7.09068 18.3072 8.35069C16.93 9.6107 16.1563 11.3196 16.1562 13.1016Z" stroke="black" stroke-width="2" stroke-linecap="round" stroke-linejoin="round"/>
<path d="M12.4844 36.6172V33.2578C12.4844 31.4759 13.2581 29.7669 14.6353 28.5069C16.0125 27.2469 17.8804 26.5391 19.8281 26.5391H26.2539" stroke="black" stroke-width="2" stroke-linecap="round" stroke-linejoin="round"/>
<path d="M35.2867 27.5635C36.0098 26.9019 36.9905 26.5303 38.0131 26.5303C39.0357 26.5303 40.0164 26.9019 40.7395 27.5635C41.4625 28.225 41.8688 29.1222 41.8688 30.0578C41.8688 30.9934 41.4625 31.8906 40.7395 32.5521L34.5156 38.2967H29.0078V33.2576L35.2867 27.5635Z" stroke="black" stroke-width="2" stroke-linecap="round" stroke-linejoin="round"/>
</svg>
