<svg width="994" height="1247" viewBox="0 0 994 1247" fill="none" xmlns="http://www.w3.org/2000/svg">
<path d="M993.891 191.478L859.644 227.449C849.505 230.166 843.807 241.779 846.917 253.387L886.692 401.828C889.802 413.436 884.104 425.049 873.965 427.765L744.308 462.507C734.169 465.224 728.471 476.836 731.581 488.444L771.356 636.886C774.466 648.494 768.768 660.106 758.629 662.823L628.972 697.565C618.833 700.281 613.135 711.894 616.245 723.502L656.02 871.943C659.13 883.551 653.432 895.164 643.293 897.881L513.636 932.622C503.497 935.339 497.799 946.952 500.909 958.56L542.092 1112.26M942.853 1L808.606 36.9714C798.466 39.6881 792.768 51.3007 795.879 62.9088L835.654 211.35C838.764 222.958 833.066 234.571 822.927 237.288L693.269 272.029C683.13 274.746 677.432 286.358 680.543 297.967L720.317 446.408C723.428 458.016 717.73 469.628 707.591 472.345L577.933 507.087C567.794 509.804 557.053 502.596 553.943 490.988L514.168 342.546C511.058 330.938 516.756 319.326 526.895 316.609L658.847 281.253L659.882 280.778C667.82 277.14 671.863 267.395 669.447 257.73L665.055 240.166L629.504 107.489C626.394 95.8806 615.653 88.6728 605.514 91.3896L475.857 126.131C465.717 128.848 460.02 140.461 463.13 152.069L503.257 301.824L504.303 306.891C506.04 315.301 501.756 323.345 494.507 325.287L480.425 329.061M494.768 325.218L360.521 361.189C350.381 363.906 344.683 375.518 347.794 387.126L387.569 535.568C390.679 547.176 384.981 558.788 374.842 561.505L245.184 596.247C235.045 598.963 229.347 610.576 232.458 622.184L272.232 770.625C275.343 782.233 269.645 793.846 259.506 796.563L129.848 831.304C119.709 834.021 114.011 845.634 117.122 857.242L156.896 1005.68C160.007 1017.29 154.309 1028.9 144.17 1031.62L14.5123 1066.36C4.37316 1069.08 -1.3248 1080.69 1.78556 1092.3L42.9683 1246" stroke="url(#paint0_linear_1_489)" stroke-opacity="0.8" stroke-width="0.7"/>
<defs>
<linearGradient id="paint0_linear_1_489" x1="942.853" y1="1" x2="57.463" y2="1064.3" gradientUnits="userSpaceOnUse">
<stop offset="0.0819437" stop-color="#F7F7F7"/>
<stop offset="0.208333" stop-color="#12C2E9"/>
<stop offset="0.526042" stop-color="#C471ED"/>
<stop offset="0.9375" stop-color="#F64F59"/>
</linearGradient>
</defs>
</svg>
