<svg width="822" height="682" viewBox="0 0 822 682" fill="none" xmlns="http://www.w3.org/2000/svg">
<path d="M125.14 0.299363L149.643 91.7472C151.494 98.6539 159.127 102.61 166.692 100.583L263.436 74.6602C271.001 72.6331 278.634 76.5888 280.485 83.4955L304.15 171.817C306.001 178.724 313.634 182.679 321.199 180.652L417.943 154.73C425.508 152.703 433.141 156.658 434.992 163.565L458.657 251.887C460.508 258.793 468.141 262.749 475.706 260.722L572.45 234.8C580.015 232.772 587.648 236.728 589.499 243.635L613.165 331.956C615.015 338.863 622.648 342.819 630.214 340.792L730.382 313.952M1 33.5625L25.5034 125.01C27.354 131.917 34.9872 135.873 42.5524 133.846L139.296 107.923C146.861 105.896 154.494 109.852 156.345 116.759L180.011 205.08C181.861 211.987 189.494 215.942 197.06 213.915L293.803 187.993C301.368 185.966 309.001 189.922 310.852 196.828L334.518 285.15C336.368 292.056 331.736 299.299 324.17 301.326L227.427 327.248C219.862 329.275 212.229 325.32 210.378 318.413L186.293 228.528L185.976 227.822C183.539 222.404 177.139 219.585 170.839 221.156L159.39 224.009L72.9199 247.178C65.3546 249.206 60.722 256.448 62.5726 263.355L86.2383 351.676C88.0889 358.583 95.722 362.538 103.287 360.511L200.887 334.36L204.192 333.686C209.676 332.569 214.966 335.537 216.29 340.475L218.86 350.068M216.242 340.298L240.745 431.746C242.596 438.652 250.229 442.608 257.794 440.581L354.538 414.659C362.103 412.632 369.736 416.587 371.587 423.494L395.253 511.815C397.103 518.722 404.736 522.678 412.302 520.651L509.045 494.728C516.61 492.701 524.243 496.657 526.094 503.564L549.76 591.885C551.61 598.792 559.244 602.748 566.809 600.72L663.552 574.798C671.117 572.771 678.751 576.727 680.601 583.633L704.267 671.955C706.118 678.862 713.751 682.817 721.316 680.79L821.484 653.95" stroke="url(#paint0_linear_1_93)" stroke-opacity="0.8"/>
<defs>
<linearGradient id="paint0_linear_1_93" x1="1" y1="33.5625" x2="726.733" y2="612.521" gradientUnits="userSpaceOnUse">
<stop stop-color="#F7F7F7"/>
<stop offset="0.333333" stop-color="#00B3FF"/>
<stop offset="0.666667" stop-color="#EB00FF"/>
<stop offset="1" stop-color="#FF0000"/>
</linearGradient>
</defs>
</svg>
