<svg width="49" height="49" viewBox="0 0 49 49" fill="none" xmlns="http://www.w3.org/2000/svg">
<path d="M24.0304 24.3367C25.5493 22.7762 27.3649 21.5352 29.3705 20.6867C31.376 19.8382 33.531 19.3993 35.7087 19.3958C37.7206 19.3905 39.7154 19.7646 41.5887 20.4983C41.6656 20.5333 41.7492 20.5514 41.8337 20.5514C41.9182 20.5514 42.0018 20.5333 42.0787 20.4983C42.1442 20.4467 42.1981 20.3818 42.2368 20.3079C42.2755 20.2341 42.2982 20.1528 42.3033 20.0696V16.3333C42.3015 15.5062 42.1176 14.6897 41.7648 13.9416C41.4119 13.1936 40.8987 12.5324 40.2616 12.005C40.1986 11.9618 40.1471 11.9039 40.1115 11.8363C40.0759 11.7687 40.0574 11.6935 40.0575 11.6171C40.0619 11.5416 40.0824 11.468 40.1176 11.4011C40.1528 11.3342 40.2019 11.2755 40.2616 11.2292L42.0787 9.75916C42.2974 9.5949 42.4808 9.38838 42.6181 9.15187C42.7554 8.91535 42.8438 8.65366 42.878 8.38233C42.9123 8.111 42.8916 7.83556 42.8174 7.57235C42.7431 7.30915 42.6167 7.06355 42.4457 6.85013C42.2747 6.63671 42.0625 6.45982 41.8218 6.32997C41.5812 6.20011 41.3168 6.11993 41.0446 6.09419C40.7723 6.06845 40.4976 6.09767 40.2369 6.18012C39.9761 6.26257 39.7346 6.39657 39.5266 6.57416L38.0566 7.75832C37.9806 7.80754 37.892 7.83373 37.8014 7.83373C37.7108 7.83373 37.6222 7.80754 37.5462 7.75832C37.4588 7.72806 37.3817 7.67364 37.3238 7.60138C37.266 7.52911 37.2299 7.44195 37.2195 7.34999L37.0358 5.55332C36.9075 4.0189 36.206 2.5891 35.0709 1.54863C33.9358 0.50817 32.4506 -0.0666143 30.9108 -0.0612593H11.9029C10.3696 -0.0674808 8.88969 0.501622 7.75564 1.53361C6.62159 2.56559 5.91585 3.98539 5.77787 5.51249L5.5737 7.30916C5.57031 7.4022 5.54048 7.49236 5.4877 7.56907C5.43492 7.64577 5.36138 7.70585 5.27569 7.74227C5.18999 7.77869 5.0957 7.78994 5.00385 7.7747C4.91199 7.75947 4.82638 7.71838 4.75704 7.65624L3.32787 6.51291C2.89739 6.17719 2.35118 6.02623 1.80939 6.09323C1.26761 6.16024 0.77463 6.43972 0.43891 6.8702C0.103191 7.30068 -0.0477718 7.84689 0.0192334 8.38868C0.0862386 8.93046 0.365723 9.42344 0.796202 9.75916L2.59287 11.2087C2.64983 11.2562 2.69577 11.3155 2.7275 11.3824C2.75924 11.4494 2.776 11.5225 2.77662 11.5967C2.78438 11.6748 2.7715 11.7537 2.73925 11.8254C2.70701 11.897 2.65654 11.9589 2.59287 12.005C1.94985 12.5285 1.43127 13.1885 1.07463 13.9371C0.717997 14.6856 0.532234 15.5041 0.530785 16.3333V20.9271C0.53608 21.8695 0.911419 22.7721 1.57592 23.4405C2.24042 24.1088 3.14089 24.4893 4.08329 24.5H23.6425C23.715 24.5019 23.7871 24.4883 23.854 24.4602C23.9209 24.432 23.981 24.3899 24.0304 24.3367ZM9.45287 9.63666L9.8612 5.96166C9.90235 5.44897 10.1355 4.97069 10.514 4.62245C10.8925 4.27422 11.3885 4.08168 11.9029 4.08332H30.9312C31.4521 4.08239 31.9537 4.28059 32.3332 4.63737C32.7128 4.99415 32.9416 5.48252 32.9729 6.00249L33.3608 9.63666C33.371 9.70953 33.3654 9.78374 33.3442 9.85423C33.3231 9.92471 33.2869 9.98978 33.2383 10.045C33.1357 10.1486 32.9962 10.2073 32.8504 10.2083H9.96329C9.89376 10.21 9.82472 10.1962 9.76117 10.168C9.69761 10.1397 9.64112 10.0977 9.59579 10.045C9.50166 9.92989 9.45107 9.78533 9.45287 9.63666ZM8.16662 20.9271C7.56091 20.9271 6.96881 20.7475 6.46518 20.4109C5.96156 20.0744 5.56903 19.5961 5.33724 19.0365C5.10544 18.4769 5.0448 17.8612 5.16296 17.2671C5.28113 16.673 5.57281 16.1274 6.0011 15.6991C6.4294 15.2708 6.97509 14.9791 7.56916 14.8609C8.16322 14.7428 8.77899 14.8034 9.33859 15.0352C9.89819 15.267 10.3765 15.6595 10.713 16.1631C11.0495 16.6668 11.2291 17.2589 11.2291 17.8646C11.2291 18.6768 10.9065 19.4558 10.3321 20.0301C9.7578 20.6044 8.97884 20.9271 8.16662 20.9271Z" fill="white"/>
<path d="M13.2912 26.5417H5.12455C4.98918 26.5417 4.85935 26.5954 4.76363 26.6912C4.66791 26.7869 4.61414 26.9167 4.61414 27.0521V27.5625C4.61414 28.7808 5.09812 29.9493 5.95961 30.8108C6.82111 31.6723 7.98955 32.1562 9.20789 32.1562C10.4262 32.1562 11.5947 31.6723 12.4562 30.8108C13.3177 29.9493 13.8016 28.7808 13.8016 27.5625V27.0521C13.8016 26.9167 13.7479 26.7869 13.6521 26.6912C13.5564 26.5954 13.4266 26.5417 13.2912 26.5417Z" fill="white"/>
<path d="M35.7087 22.4583C33.0848 22.4624 30.5211 23.2441 28.3414 24.7048C26.1617 26.1655 24.4639 28.2395 23.4626 30.6648C22.4613 33.09 22.2014 35.7577 22.7157 38.3307C23.2301 40.9036 24.4956 43.2663 26.3524 45.1202C28.2092 46.9742 30.5738 48.2361 33.1476 48.7465C35.7213 49.2569 38.3886 48.9929 40.8123 47.9878C43.2361 46.9828 45.3075 45.2818 46.7648 43.0999C48.2221 40.918 48.9999 38.353 48.9999 35.7292C48.9945 32.2076 47.5918 28.8322 45.0998 26.344C42.6078 23.8558 39.2302 22.4583 35.7087 22.4583ZM42.8749 33.3812L36.9541 41.3029C36.6479 41.7151 36.256 42.0561 35.8054 42.3023C35.3548 42.5485 34.8561 42.6941 34.3438 42.729C33.8315 42.7639 33.3177 42.6874 32.8378 42.5046C32.3579 42.3219 31.9234 42.0373 31.5641 41.6704L28.5016 38.6079C28.2879 38.4249 28.1143 38.1996 27.9917 37.9463C27.8692 37.6931 27.8003 37.4172 27.7895 37.136C27.7786 36.8548 27.826 36.5744 27.9286 36.3124C28.0313 36.0504 28.187 35.8125 28.3859 35.6135C28.5849 35.4145 28.8229 35.2588 29.0848 35.1562C29.3468 35.0535 29.6272 35.0062 29.9084 35.017C30.1896 35.0279 30.4655 35.0968 30.7188 35.2193C30.9721 35.3419 31.1973 35.5154 31.3803 35.7292L33.6262 37.9546C33.6746 38.0089 33.7346 38.0518 33.8017 38.08C33.8688 38.1083 33.9414 38.1212 34.0141 38.1179C34.0863 38.1119 34.1565 38.0906 34.2198 38.0554C34.2832 38.0202 34.3383 37.9719 34.3816 37.9137L39.6083 30.9312C39.7691 30.7168 39.9707 30.536 40.2014 30.3994C40.4321 30.2628 40.6874 30.173 40.9529 30.1351C41.2183 30.0972 41.4886 30.1119 41.7483 30.1785C42.008 30.245 42.2521 30.362 42.4666 30.5229C42.6811 30.6838 42.8618 30.8853 42.9984 31.116C43.135 31.3467 43.2248 31.6021 43.2627 31.8675C43.3007 32.1329 43.2859 32.4032 43.2194 32.6629C43.1528 32.9227 43.0358 33.1667 42.8749 33.3812Z" fill="white"/>
</svg>
