<svg width="45" height="43" viewBox="0 0 45 43" fill="none" xmlns="http://www.w3.org/2000/svg">
<path fill-rule="evenodd" clip-rule="evenodd" d="M22.9125 0H11.7937C10.44 0 9.33937 0.944208 9.33937 2.11058V4.29642C9.33937 5.46279 10.44 6.40879 11.7956 6.40879H22.9106C24.2681 6.40879 25.3669 5.46279 25.3669 4.29821V2.11058C25.3669 0.946 24.2681 0 22.9106 0H22.9125ZM37.4494 22.8079H31.8131C31.5645 22.8079 31.326 22.9023 31.1502 23.0703C30.9744 23.2383 30.8756 23.4662 30.8756 23.7037V29.1271H25.1981C24.9495 29.1271 24.711 29.2215 24.5352 29.3895C24.3594 29.5575 24.2606 29.7854 24.2606 30.023V35.4087C24.2606 35.6463 24.3594 35.8742 24.5352 36.0422C24.711 36.2102 24.9495 36.3045 25.1981 36.3045H30.8756V41.7279C30.8756 41.9655 30.9744 42.1934 31.1502 42.3614C31.326 42.5294 31.5645 42.6237 31.8131 42.6237H37.4494C37.698 42.6237 37.9365 42.5294 38.1123 42.3614C38.2881 42.1934 38.3869 41.9655 38.3869 41.7279V36.3045H44.0625C44.3111 36.3045 44.5496 36.2102 44.7254 36.0422C44.9012 35.8742 45 35.6463 45 35.4087V30.023C45 29.7854 44.9012 29.5575 44.7254 29.3895C44.5496 29.2215 44.3111 29.1271 44.0625 29.1271H38.3869V23.702C38.3869 23.4644 38.2881 23.2365 38.1123 23.0685C37.9365 22.9005 37.698 22.8061 37.4494 22.8061V22.8079ZM3.47062 3.20171H6.52687V4.29463C6.52687 7.20608 9.17437 9.0945 11.7956 9.0945H22.9106C25.5337 9.0945 28.1794 7.20608 28.1794 4.29642V3.2035H31.2356C32.1554 3.20397 33.0374 3.55334 33.6879 4.17484C34.3383 4.79635 34.7039 5.63915 34.7044 6.51808V20.1168H31.8131C30.8186 20.1168 29.8647 20.4944 29.1615 21.1664C28.4582 21.8384 28.0631 22.7498 28.0631 23.7002V26.4378H25.1981C24.2036 26.4378 23.2497 26.8154 22.5465 27.4874C21.8432 28.1594 21.4481 29.0708 21.4481 30.0212V35.4069C21.4481 36.3573 21.8432 37.2687 22.5465 37.9407C23.2497 38.6127 24.2036 38.9903 25.1981 38.9903H28.0631V41.7261C28.0631 42.174 28.1494 42.604 28.3069 42.9982H3.46875C2.54878 42.9982 1.66649 42.649 1.01597 42.0274C0.365457 41.4058 0 40.5627 0 39.6836V6.51988C0.000497105 5.64063 0.366371 4.79756 1.01719 4.176C1.668 3.55445 2.55048 3.20529 3.47062 3.20529V3.20171ZM8.34562 15.2453C7.97266 15.2453 7.61498 15.3869 7.35126 15.6389C7.08753 15.8909 6.93937 16.2327 6.93937 16.589C6.93937 16.9454 7.08753 17.2872 7.35126 17.5392C7.61498 17.7912 7.97266 17.9328 8.34562 17.9328H26.3606C26.7336 17.9328 27.0913 17.7912 27.355 17.5392C27.6187 17.2872 27.7669 16.9454 27.7669 16.589C27.7669 16.2327 27.6187 15.8909 27.355 15.6389C27.0913 15.3869 26.7336 15.2453 26.3606 15.2453H8.34375H8.34562ZM6.93937 24.6515C6.93937 24.2952 7.08753 23.9534 7.35126 23.7014C7.61498 23.4494 7.97266 23.3078 8.34562 23.3078H15.9937C16.3667 23.3078 16.7244 23.4494 16.9881 23.7014C17.2518 23.9534 17.4 24.2952 17.4 24.6515C17.4 25.0079 17.2518 25.3497 16.9881 25.6017C16.7244 25.8537 16.3667 25.9953 15.9937 25.9953H8.34375C7.97079 25.9953 7.6131 25.8537 7.34938 25.6017C7.08566 25.3497 6.9375 25.0079 6.9375 24.6515H6.93937ZM8.34562 31.3703C7.97266 31.3703 7.61498 31.5119 7.35126 31.7639C7.08753 32.0159 6.93937 32.3577 6.93937 32.714C6.93937 33.0704 7.08753 33.4122 7.35126 33.6642C7.61498 33.9162 7.97266 34.0578 8.34562 34.0578H15.9937C16.3667 34.0578 16.7244 33.9162 16.9881 33.6642C17.2518 33.4122 17.4 33.0704 17.4 32.714C17.4 32.3577 17.2518 32.0159 16.9881 31.7639C16.7244 31.5119 16.3667 31.3703 15.9937 31.3703H8.34375H8.34562Z" fill="white"/>
</svg>
