<svg width="50" height="48" viewBox="0 0 50 48" fill="none" xmlns="http://www.w3.org/2000/svg">
<path fill-rule="evenodd" clip-rule="evenodd" d="M25.7421 8.69149C25.7421 13.1506 20.2401 19.4257 18.2982 21.4933C18.2157 21.5827 18.1156 21.654 18.0042 21.7027C17.8928 21.7517 17.7726 21.7767 17.6509 21.7767C17.5293 21.7767 17.4091 21.7517 17.2977 21.7027C17.1863 21.654 17.0862 21.5827 17.0037 21.4933C15.0618 19.4796 9.55986 13.1506 9.55986 8.69149C9.55986 6.54562 10.4123 4.48762 11.9297 2.97024C13.4471 1.45287 15.5051 0.600403 17.6509 0.600403C19.7968 0.600403 21.8548 1.45287 23.3723 2.97024C24.8896 4.48762 25.7421 6.54562 25.7421 8.69149ZM15.4084 7.19312C15.1121 7.63664 14.9539 8.15807 14.9539 8.69149C14.9539 9.4068 15.2381 10.0928 15.7439 10.5986C16.2497 11.1044 16.9357 11.3885 17.6509 11.3885C18.1844 11.3885 18.7058 11.2303 19.1493 10.934C19.5929 10.6376 19.9386 10.2164 20.1427 9.72362C20.3468 9.23078 20.4002 8.68851 20.2962 8.16532C20.1921 7.64216 19.9352 7.1616 19.558 6.78441C19.1808 6.40722 18.7003 6.15037 18.1771 6.04628C17.6539 5.94222 17.1117 5.99564 16.6188 6.19976C16.126 6.40391 15.7048 6.74957 15.4084 7.19312ZM25.3341 17.7439C23.5885 20.3163 21.6081 22.5336 20.5821 23.6265C20.2093 24.0265 19.7585 24.3461 19.2574 24.5654C18.7509 24.7873 18.2039 24.9017 17.6509 24.9017C17.098 24.9017 16.551 24.7873 16.0445 24.5654C15.5518 24.3498 15.1077 24.0373 14.7386 23.6465C13.6827 22.5498 11.7057 20.3325 9.96545 17.7607C9.08976 16.4667 8.23262 15.0224 7.58559 13.5393C6.95114 12.085 6.43486 10.4052 6.43486 8.69145C6.43486 7.33791 6.67951 6.0096 7.14434 4.76564L5.89832 4.42564C5.4487 4.30287 4.97728 4.28224 4.51864 4.36524C4.05991 4.44826 3.62555 4.63287 3.24743 4.90553C2.86928 5.1782 2.55695 5.53201 2.33328 5.94105C2.10964 6.35007 1.9803 6.80441 1.95482 7.26991L0.094687 41.515L0.0945249 41.5177C0.0522339 42.2436 0.264459 42.9617 0.694688 43.5481C1.12546 44.1352 1.74854 44.5536 2.45487 44.7306L12.7559 47.3054C13.2757 47.4358 13.8207 47.4304 14.3377 47.2898L24.7231 44.4586C24.9025 44.4096 25.0916 44.4096 25.271 44.4586L35.6568 47.2898C36.1739 47.4306 36.7185 47.4358 37.2381 47.3054L47.5435 44.7306C48.2475 44.5546 48.8685 44.139 49.2995 43.5552C49.7306 42.9713 49.945 42.2554 49.906 41.5306L48.0558 7.27989C48.0304 6.81439 47.901 6.36049 47.6775 5.95147C47.4537 5.54243 47.1414 5.18862 46.7633 4.91595C46.3852 4.64328 45.9508 4.45868 45.492 4.37566C45.0333 4.29264 44.5618 4.31332 44.112 4.43614L35.7185 6.72776L35.716 6.72847C35.5302 6.77968 35.3321 6.77664 35.1477 6.72072L28.0921 4.59451C28.5993 5.88745 28.8671 7.27564 28.8671 8.69145C28.8671 10.4063 28.3502 12.0837 27.7148 13.5353C27.0671 15.0149 26.2093 16.4543 25.3341 17.7439ZM9.50534 25.8986C8.67395 26.1296 8.18732 26.9911 8.41847 27.8225C8.61928 28.5448 8.86511 29.2346 9.15205 29.8883C9.49886 30.6786 10.4206 31.0379 11.2108 30.6911C12.001 30.3442 12.3604 29.4225 12.0136 28.6323C11.7877 28.1177 11.5913 27.5683 11.4293 26.9854C11.1981 26.154 10.3368 25.6673 9.50534 25.8986ZM38.1691 27.6408C37.9877 28.4846 38.5246 29.3156 39.3681 29.4971C39.8587 29.6027 40.3439 29.7496 40.8243 29.9396C41.6266 30.2573 42.5345 29.8644 42.8523 29.0619C43.1698 28.2596 42.7768 27.3517 41.9743 27.034C41.3356 26.7813 40.6856 26.584 40.0254 26.4421C39.1818 26.2604 38.3508 26.7973 38.1691 27.6408ZM35.9198 27.7336C35.7156 26.895 34.8706 26.3808 34.032 26.5848C32.8193 26.88 31.6029 27.3254 30.3862 27.9046C29.6071 28.2756 29.276 29.2079 29.647 29.9871C30.0179 30.7663 30.9502 31.0971 31.7293 30.7263C32.7789 30.2267 33.7933 29.8592 34.771 29.6213C35.6096 29.4171 36.1237 28.5721 35.9198 27.7336ZM27.766 31.1742C27.2504 30.4823 26.2716 30.3392 25.5796 30.8548C25.0935 31.2171 24.6066 31.5983 24.1189 31.9981C23.6556 32.3781 23.1885 32.6956 22.7227 32.9563C21.9698 33.3777 21.701 34.3298 22.1223 35.0829C22.5437 35.8361 23.496 36.1048 24.2489 35.6833C24.8823 35.329 25.5008 34.9063 26.1002 34.4148C26.5527 34.044 27.0014 33.6925 27.4468 33.3606C28.1387 32.845 28.2816 31.8661 27.766 31.1742ZM12.9223 32.9415C12.4188 33.6423 12.5788 34.6188 13.2796 35.1221C14.558 36.0404 15.9991 36.6598 17.5253 36.9194C18.3761 37.0642 19.1831 36.4919 19.3278 35.6413C19.4726 34.7904 18.9003 33.9836 18.0496 33.8388C17.0171 33.6629 16.0164 33.2404 15.1029 32.5842C14.4021 32.0806 13.4258 32.2406 12.9223 32.9415Z" fill="white"/>
</svg>
