<svg width="69" height="52" viewBox="0 0 69 52" fill="none" xmlns="http://www.w3.org/2000/svg">
<path fill-rule="evenodd" clip-rule="evenodd" d="M32.4486 10.1701L33.6279 10.0804C33.7952 10.0675 33.9504 9.99253 34.0593 9.87195C34.1682 9.75138 34.2221 9.59499 34.2091 9.43703L34.0649 7.77059C34.0584 7.69243 34.0357 7.61626 33.9979 7.54642C33.9602 7.47658 33.9082 7.41445 33.8449 7.3636C33.7817 7.31275 33.7085 7.27418 33.6294 7.25009C33.5503 7.226 33.467 7.21685 33.3842 7.2232H30.753L27.9038 1.18606C27.6925 0.79877 27.3634 0.479837 26.9587 0.270133C26.5541 0.0604295 26.0923 -0.0304902 25.6326 0.00901556H8.86616C8.40588 -0.0299271 7.94372 0.0611949 7.53847 0.270793C7.13323 0.480391 6.80321 0.798989 6.5904 1.18606L3.74459 7.2232H1.11338C0.946144 7.21095 0.78057 7.26165 0.652816 7.36421C0.525062 7.46677 0.445511 7.61286 0.431544 7.77059L0.28959 9.43703C0.276304 9.59489 0.32992 9.75128 0.438674 9.87189C0.547427 9.9925 0.702435 10.0675 0.869704 10.0804L2.04894 10.1701C0.706646 11.9783 -0.00910444 14.1345 8.7436e-05 16.3422L0.266122 19.5327C0.28857 19.8326 0.393048 20.1219 0.569362 20.3724C0.745676 20.6229 0.987795 20.826 1.2721 20.9618V22.6493C1.38387 24.9539 2.15289 24.9539 3.86418 24.9539C5.57547 24.9539 6.45739 24.9539 6.57252 22.6493V21.1548H17.2482H27.8312V22.6472C27.943 24.9518 28.7109 24.9518 30.4233 24.9518C32.1357 24.9518 33.0165 24.9518 33.1305 22.6472V20.9597C33.4255 20.8277 33.6804 20.6274 33.8715 20.3776C34.0627 20.1277 34.1838 19.8364 34.2236 19.5306L34.4941 16.3401C34.5038 14.1334 33.7893 11.9781 32.4486 10.1701ZM11.1475 17.4159C11.1472 17.5742 11.0805 17.726 10.9619 17.8381C10.8434 17.9501 10.6827 18.0133 10.5149 18.0139H4.28111C4.19779 18.014 4.11526 17.9987 4.03824 17.9687C3.96121 17.9387 3.89121 17.8947 3.83225 17.8391C3.77328 17.7836 3.72649 17.7176 3.69457 17.645C3.66265 17.5723 3.64622 17.4945 3.64622 17.4159V15.2643C3.64592 15.1856 3.66215 15.1076 3.69397 15.0349C3.72578 14.9621 3.77255 14.896 3.83158 14.8404C3.89061 14.7848 3.96073 14.7408 4.03789 14.7109C4.11504 14.681 4.1977 14.6658 4.28111 14.6663L10.5149 15.144C10.6825 15.1446 10.843 15.2077 10.9616 15.3195C11.0801 15.4313 11.1469 15.5829 11.1475 15.741V17.4159ZM5.67049 8.99933L8.73538 2.34729H25.7611L28.8249 8.99933H5.67272H5.67049ZM30.8536 17.4159C30.8536 17.5745 30.7868 17.7266 30.668 17.8387C30.5491 17.9509 30.3879 18.0139 30.2198 18.0139H23.9861C23.8181 18.0136 23.6571 17.9505 23.5383 17.8384C23.4195 17.7263 23.3526 17.5744 23.3523 17.4159V15.741C23.3532 15.5828 23.4203 15.4312 23.539 15.3194C23.6577 15.2076 23.8184 15.1446 23.9861 15.144L30.2198 14.6663C30.3032 14.666 30.3857 14.6813 30.4627 14.7112C30.5397 14.7412 30.6097 14.7852 30.6686 14.8408C30.7275 14.8964 30.7742 14.9624 30.806 15.0351C30.8377 15.1078 30.8539 15.1857 30.8536 15.2643V17.4159ZM66.94 24.9639L68.1192 24.8743C68.2866 24.8614 68.4417 24.7864 68.5506 24.6658C68.6596 24.5453 68.7134 24.3889 68.7005 24.2309L68.5563 22.5645C68.5498 22.4863 68.527 22.4101 68.4892 22.3403C68.4515 22.2705 68.3995 22.2083 68.3363 22.1575C68.273 22.1066 68.1998 22.0681 68.1207 22.044C68.0417 22.0199 67.9584 22.0107 67.8755 22.0171H65.2443L62.3952 15.98C62.1838 15.5927 61.8547 15.2737 61.4501 15.064C61.0454 14.8543 60.5836 14.7634 60.1239 14.8029H43.3575C42.8972 14.764 42.4351 14.8551 42.0298 15.0647C41.6246 15.2743 41.2945 15.5929 41.0817 15.98L38.2359 22.0171H35.6047C35.4375 22.0048 35.2719 22.0555 35.1442 22.1581C35.0164 22.2607 34.9368 22.4067 34.9229 22.5645L34.7809 24.2309C34.7676 24.3888 34.8213 24.5452 34.93 24.6658C35.0388 24.7864 35.1938 24.8614 35.361 24.8743L36.5403 24.9639C35.198 26.7722 34.4822 28.9284 34.4914 31.1361L34.7575 34.3266C34.7799 34.6265 34.8844 34.9158 35.0607 35.1663C35.237 35.4168 35.4791 35.6199 35.7634 35.7557V37.4432C35.8752 39.7478 36.6442 39.7477 38.3555 39.7477C40.0668 39.7477 40.9487 39.7478 41.0639 37.4432V35.9487H51.7396H62.3225V37.4411C62.4343 39.7456 63.2022 39.7456 64.9146 39.7456C66.627 39.7456 67.5078 39.7456 67.6218 37.4411V35.7536C67.9169 35.6215 68.1718 35.4213 68.3629 35.1715C68.554 34.9216 68.6751 34.6303 68.715 34.3245L68.9855 31.134C68.9952 28.9273 68.2806 26.772 66.94 24.9639ZM45.6388 32.2098C45.6385 32.3681 45.5718 32.5199 45.4533 32.6319C45.3347 32.744 45.174 32.8072 45.0062 32.8078H38.7724C38.6891 32.8079 38.6066 32.7926 38.5296 32.7626C38.4525 32.7326 38.3826 32.6886 38.3236 32.633C38.2646 32.5775 38.2178 32.5115 38.1859 32.4389C38.154 32.3662 38.1376 32.2884 38.1376 32.2098V30.0582C38.1373 29.9795 38.1535 29.9015 38.1853 29.8287C38.2171 29.756 38.2639 29.6899 38.3229 29.6343C38.3819 29.5787 38.4521 29.5347 38.5292 29.5048C38.6064 29.4749 38.689 29.4597 38.7724 29.4602L45.0062 29.9379C45.1738 29.9385 45.3344 30.0016 45.4529 30.1134C45.5714 30.2252 45.6383 30.3767 45.6388 30.5349V32.2098ZM40.1618 23.7932L43.2267 17.1412H60.2524L63.3162 23.7932H40.1641H40.1618ZM65.3449 32.2098C65.3449 32.3684 65.2782 32.5205 65.1593 32.6326C65.0405 32.7448 64.8793 32.8078 64.7112 32.8078H58.4774C58.3094 32.8075 58.1484 32.7444 58.0296 32.6323C57.9108 32.5202 57.8439 32.3683 57.8437 32.2098V30.5349C57.8445 30.3766 57.9116 30.2251 58.0303 30.1133C58.149 30.0015 58.3097 29.9385 58.4774 29.9379L64.7112 29.4602C64.7945 29.4599 64.877 29.4751 64.954 29.5051C65.0311 29.5351 65.1011 29.5791 65.16 29.6347C65.2189 29.6903 65.2655 29.7563 65.2973 29.829C65.329 29.9017 65.3452 29.9796 65.3449 30.0582V32.2098ZM33.6279 36.7098L32.4486 36.7994C33.7893 38.6075 34.5038 40.7628 34.4941 42.9695L34.2236 46.16C34.1838 46.4658 34.0626 46.7571 33.8715 47.007C33.6804 47.2568 33.4255 47.457 33.1305 47.5891V49.2766C33.0165 51.5811 32.1357 51.5811 30.4233 51.5811C28.7109 51.5811 27.943 51.5811 27.8312 49.2766V47.7842H17.2482H6.57252V49.2787C6.45739 51.5832 5.57547 51.5832 3.86418 51.5832C2.15289 51.5832 1.38387 51.5832 1.2721 49.2787V47.5912C0.987795 47.4553 0.745676 47.2523 0.569362 47.0018C0.393048 46.7513 0.28857 46.462 0.266122 46.1621L8.7436e-05 42.9716C-0.00910444 40.7639 0.706646 38.6077 2.04894 36.7994L0.869704 36.7098C0.702435 36.6969 0.547427 36.6219 0.438674 36.5013C0.32992 36.3807 0.276304 36.2243 0.28959 36.0664L0.431544 34.4C0.445511 34.2422 0.525062 34.0962 0.652816 33.9936C0.780569 33.891 0.946144 33.8403 1.11338 33.8526H3.74459L6.5904 27.8154C6.80321 27.4284 7.13323 27.1098 7.53847 26.9002C7.94372 26.6906 8.40588 26.5995 8.86616 26.6384H25.6325C26.0923 26.5989 26.5541 26.6898 26.9587 26.8995C27.3634 27.1092 27.6925 27.4282 27.9038 27.8154L30.753 33.8526H33.3842C33.467 33.8462 33.5503 33.8554 33.6294 33.8795C33.7085 33.9036 33.7817 33.9421 33.8449 33.993C33.9082 34.0438 33.9602 34.106 33.9979 34.1758C34.0357 34.2456 34.0584 34.3218 34.0649 34.4L34.2091 36.0664C34.2221 36.2244 34.1682 36.3808 34.0593 36.5013C33.9504 36.6219 33.7952 36.6969 33.6279 36.7098ZM10.9619 44.4674C11.0805 44.3554 11.1472 44.2036 11.1475 44.0453V42.3704C11.1469 42.2122 11.0801 42.0607 10.9616 41.9489C10.843 41.8371 10.6825 41.774 10.5149 41.7734L4.28111 41.2956C4.1977 41.2952 4.11504 41.3104 4.03789 41.3403C3.96073 41.3702 3.89061 41.4142 3.83158 41.4698C3.77255 41.5254 3.72578 41.5915 3.69397 41.6642C3.66215 41.737 3.64592 41.815 3.64622 41.8937V44.0453C3.64622 44.1239 3.66265 44.2017 3.69457 44.2744C3.72649 44.347 3.77328 44.413 3.83225 44.4685C3.89121 44.524 3.96121 44.5681 4.03823 44.5981C4.11526 44.628 4.19779 44.6434 4.28111 44.6433H10.5149C10.6827 44.6427 10.8434 44.5795 10.9619 44.4674ZM8.73538 28.9767L5.67049 35.6287H5.67272H28.8249L25.7611 28.9767H8.73538ZM30.668 44.4681C30.7868 44.356 30.8536 44.2039 30.8536 44.0453V41.8937C30.8539 41.8151 30.8377 41.7372 30.806 41.6645C30.7742 41.5918 30.7275 41.5258 30.6686 41.4702C30.6097 41.4146 30.5397 41.3706 30.4627 41.3406C30.3857 41.3106 30.3031 41.2954 30.2198 41.2956L23.9861 41.7734C23.8184 41.774 23.6577 41.837 23.539 41.9488C23.4203 42.0606 23.3532 42.2121 23.3523 42.3704V44.0453C23.3526 44.2038 23.4195 44.3557 23.5383 44.4678C23.6571 44.5799 23.8181 44.643 23.9861 44.6433H30.2198C30.3879 44.6433 30.5491 44.5803 30.668 44.4681Z" fill="white"/>
</svg>
