<svg width="22" height="22" viewBox="0 0 22 22" fill="none" xmlns="http://www.w3.org/2000/svg">
<path d="M16.4576 4.94172L18.9071 9.86147C18.9504 9.9261 18.9718 10.012 18.9931 10.0767C19.1436 10.4637 19.2509 11.0007 19.2509 11.3444V13.686C19.2509 14.4168 18.7566 15.0184 18.0691 15.1903V16.5653C18.0691 17.2315 17.5321 17.7471 16.8873 17.7471C16.2211 17.7471 15.7054 17.2315 15.7054 16.5653V15.2329H6.29495V16.5653C6.29495 17.2315 5.77932 17.7471 5.11314 17.7471C4.46826 17.7471 3.93132 17.2315 3.93132 16.5653V15.1903C3.24382 15.0184 2.74951 14.4168 2.74951 13.686V11.3444C2.74951 11.0007 2.85676 10.4637 3.00732 10.0767C3.02864 10.012 3.05064 9.9261 3.09326 9.86147L5.54282 4.94172C5.73601 4.57666 6.25164 4.23291 6.68132 4.23291H15.3184C15.7481 4.23291 16.2644 4.57666 16.4576 4.94172ZM6.55276 6.42397L5.24239 9.41047C5.17776 9.51772 5.17776 9.64697 5.17776 9.73291H16.8226C16.8226 9.64697 16.8226 9.51772 16.758 9.41047L15.4476 6.42397C15.2758 6.03691 14.7601 5.69316 14.3518 5.69316H7.64864C7.24026 5.69316 6.72464 6.03691 6.55276 6.42397ZM5.9732 13.6853C6.6607 13.6853 7.19764 13.1264 7.19764 12.4176C7.19764 11.7301 6.6607 11.1932 5.9732 11.1932C5.2857 11.1932 4.70545 11.7301 4.70545 12.4176C4.70545 13.1264 5.2857 13.6853 5.9732 13.6853ZM16.0279 13.6853C16.7154 13.6853 17.2956 13.1264 17.2956 12.4176C17.2956 11.7301 16.7154 11.1932 16.0279 11.1932C15.3404 11.1932 14.8034 11.7301 14.8034 12.4176C14.8034 13.1264 15.3404 13.6853 16.0279 13.6853Z" fill="currentColor"/>
<path d="M20.7194 12.3696C21.0296 10.8325 19.8368 10.7252 19.2016 10.8636L14.8876 15.9917L14.2997 17.7006C14.1859 18.0313 14.5215 18.3385 14.8409 18.196L16.4053 17.4978L20.7194 12.3696Z" fill="currentColor" stroke="currentColor" stroke-width="0.5"/>
</svg>
