<svg width="21" height="21" viewBox="0 0 21 21" fill="none" xmlns="http://www.w3.org/2000/svg">
<path d="M3.73711 5.85918C3.73711 4.68695 4.68744 3.7367 5.85967 3.73662H6.82452C7.38496 3.73629 7.92251 3.51432 8.31995 3.11917L8.99531 2.44381C9.82522 1.60922 11.1756 1.60922 12.0055 2.44381L12.6809 3.11917C13.0784 3.51473 13.6167 3.73662 14.1763 3.73662H15.1412C16.3134 3.73662 17.2637 4.68695 17.2637 5.85918V6.82403C17.2637 7.38365 17.4856 7.92194 17.8812 8.31946L18.5565 8.99483C19.3911 9.82474 19.3911 11.1751 18.5565 12.005L17.8812 12.6804C17.486 13.0778 17.2641 13.6154 17.2637 14.1758V15.1407C17.2637 16.3129 16.3134 17.2632 15.1412 17.2632H14.1763C13.6159 17.2636 13.0783 17.4856 12.6809 17.8807L12.0055 18.5561C11.1756 19.3906 9.82522 19.3906 8.99531 18.5561L8.31995 17.8807C7.92251 17.4856 7.38496 17.2636 6.82452 17.2632H5.85967C4.68744 17.2632 3.73711 16.3129 3.73711 15.1407V14.1758C3.73678 13.6154 3.51481 13.0778 3.11966 12.6804L2.4443 12.005C1.60971 11.1751 1.60971 9.82474 2.4443 8.99483L3.11966 8.31946C3.51481 7.92202 3.73678 7.38447 3.73711 6.82403V5.85918Z" fill="black" stroke="black" stroke-linecap="round" stroke-linejoin="round"/>
<path d="M7.5957 10.4902L9.52532 12.4198L13.3846 8.56055" stroke="white" stroke-linecap="round" stroke-linejoin="round"/>
</svg>
