<svg width="25" height="23" viewBox="0 0 25 23" fill="none" xmlns="http://www.w3.org/2000/svg">
<path d="M9.19223 4.104H6.98723C5.76941 4.10391 4.78223 5.05006 4.78223 6.21713V18.8959C4.78223 20.063 5.76941 21.0091 6.98723 21.009H18.0122C19.23 21.0091 20.2172 20.063 20.2172 18.8959V6.21713C20.2172 5.05006 19.23 4.104 18.0122 4.104H15.8072" fill="black"/>
<path d="M9.19223 4.104H6.98723C5.76941 4.10391 4.78223 5.05006 4.78223 6.21713V18.8959C4.78223 20.063 5.76941 21.0091 6.98723 21.009H18.0122C19.23 21.0091 20.2172 20.063 20.2172 18.8959V6.21713C20.2172 5.05006 19.23 4.104 18.0122 4.104H15.8072" stroke="black" stroke-linecap="round" stroke-linejoin="round"/>
<path d="M9.19238 4.10385C9.19238 2.93678 10.1796 1.99072 11.3974 1.99072H13.6024C14.8202 1.99072 15.8074 2.93678 15.8074 4.10385C15.8074 5.27092 14.8202 6.21697 13.6024 6.21697H11.3974C10.1796 6.21697 9.19238 5.27092 9.19238 4.10385Z" fill="white" stroke="black" stroke-linecap="round" stroke-linejoin="round"/>
<path d="M9.19238 13.3159H9.20437" stroke="white" stroke-width="2" stroke-linecap="square" stroke-linejoin="round"/>
<path d="M9.19238 16.9473H9.20437" stroke="white" stroke-width="2" stroke-linecap="square" stroke-linejoin="round"/>
<path d="M9.19238 9.68408H9.20437" stroke="white" stroke-width="2" stroke-linecap="square" stroke-linejoin="round"/>
<path d="M11.8682 13.3159H15.6576" stroke="white" stroke-linecap="round" stroke-linejoin="round"/>
<path d="M11.8682 16.9473H15.6576" stroke="white" stroke-linecap="round" stroke-linejoin="round"/>
<path d="M11.8682 9.68408H15.6576" stroke="white" stroke-linecap="round" stroke-linejoin="round"/>
</svg>
