<svg width="19" height="19" viewBox="0 0 19 19" fill="none" xmlns="http://www.w3.org/2000/svg">
<path d="M5.22845 2.18191V0L4.89802 0.330429L0.330394 4.89834L0 5.22849H2.18251C3.86187 5.22849 5.22845 3.86187 5.22845 2.18191Z" fill="black"/>
<path d="M17.6865 15.2825C17.6865 15.2825 16.3019 14.0716 15.9707 13.7411C15.4846 13.2573 15.2905 13.0242 15.4618 12.6312C16.2123 11.1007 15.9527 9.20083 14.6798 7.92813C13.0793 6.32734 10.4836 6.32734 8.88302 7.92813C7.28248 9.52924 7.28248 12.1241 8.88302 13.7249C10.1554 14.9973 12.0564 15.2568 13.5858 14.5066C13.9791 14.3353 14.2125 14.5294 14.696 15.0158C15.0267 15.3468 16.2373 16.7313 16.2373 16.7313C16.8651 17.3591 17.3481 16.9732 17.6387 16.6832C17.9281 16.3932 18.3143 15.9103 17.6865 15.2825ZM13.4598 12.5046C12.5329 13.4309 11.0302 13.4309 10.103 12.5046C9.1767 11.578 9.1767 10.0748 10.103 9.14872C11.0302 8.2221 12.5329 8.2221 13.4598 9.14872C14.3861 10.0748 14.3861 11.578 13.4598 12.5046Z" fill="black"/>
<path d="M13.7433 15.7115C13.1223 15.96 12.4513 16.09 11.7805 16.09C10.3746 16.09 9.05329 15.5428 8.05952 14.549C6.00735 12.4965 6.00735 9.15661 8.05923 7.10387C9.05357 6.10954 10.3758 5.56168 11.7819 5.56168C12.8682 5.56168 13.9024 5.89179 14.7761 6.49881V3.0465C14.7761 1.36662 13.4092 0 11.7298 0H6.3941V2.18191C6.3941 4.50446 4.50474 6.39414 2.18251 6.39414H0V15.1136C0 16.7935 1.36662 18.1601 3.04679 18.1601H11.7298C12.9208 18.1601 13.9519 17.4711 14.4525 16.4722C14.1966 16.1865 13.9724 15.9403 13.872 15.8396C13.8449 15.8123 13.796 15.7631 13.7433 15.7115Z" fill="black"/>
</svg>
