<svg width="18" height="17" viewBox="0 0 18 17" fill="none" xmlns="http://www.w3.org/2000/svg">
<g clip-path="url(#clip0_184_207)">
<path d="M10.2334 2.74561H16.8097" stroke="black" stroke-linecap="round" stroke-linejoin="round"/>
<path d="M10.2334 6.03369H14.3436" stroke="black" stroke-linecap="round" stroke-linejoin="round"/>
<path d="M10.2334 10.9663H16.8097" stroke="black" stroke-linecap="round" stroke-linejoin="round"/>
<path d="M10.2334 14.2544H14.3436" stroke="black" stroke-linecap="round" stroke-linejoin="round"/>
<path d="M2.0127 2.74587C2.0127 2.29192 2.38072 1.92383 2.83474 1.92383H6.12291C6.57686 1.92383 6.94495 2.29192 6.94495 2.74587V6.03404C6.94495 6.48806 6.57686 6.85609 6.12291 6.85609H2.83474C2.38072 6.85609 2.0127 6.48806 2.0127 6.03404V2.74587Z" fill="black" stroke="black" stroke-linecap="round" stroke-linejoin="round"/>
<path d="M2.0127 10.9661C2.0127 10.5121 2.38072 10.144 2.83474 10.144H6.12291C6.57686 10.144 6.94495 10.5121 6.94495 10.9661V14.2543C6.94495 14.7082 6.57686 15.0763 6.12291 15.0763H2.83474C2.38072 15.0763 2.0127 14.7082 2.0127 14.2543V10.9661Z" fill="black" stroke="black" stroke-linecap="round" stroke-linejoin="round"/>
</g>
<defs>
<clipPath id="clip0_184_207">
<rect width="17" height="17" fill="white" transform="translate(0.5)"/>
</clipPath>
</defs>
</svg>
