<svg width="21" height="21" viewBox="0 0 21 21" fill="none" xmlns="http://www.w3.org/2000/svg">
<g clip-path="url(#clip0_184_202)">
<path fill-rule="evenodd" clip-rule="evenodd" d="M14.4375 11.1562H11.1562V14.4375C11.1562 14.7984 10.8629 15.0938 10.5 15.0938C10.1371 15.0938 9.84375 14.7984 9.84375 14.4375V11.1562H6.5625C6.19959 11.1562 5.90625 10.8609 5.90625 10.5C5.90625 10.1391 6.19959 9.84375 6.5625 9.84375H9.84375V6.5625C9.84375 6.20156 10.1371 5.90625 10.5 5.90625C10.8629 5.90625 11.1562 6.20156 11.1562 6.5625V9.84375H14.4375C14.8004 9.84375 15.0938 10.1391 15.0938 10.5C15.0938 10.8609 14.8004 11.1562 14.4375 11.1562ZM10.5 0C4.70072 0 0 4.69875 0 10.5C0 16.3013 4.70072 21 10.5 21C16.2993 21 21 16.3013 21 10.5C21 4.69875 16.2993 0 10.5 0Z" fill="black"/>
</g>
<defs>
<clipPath id="clip0_184_202">
<rect width="21" height="21" fill="white"/>
</clipPath>
</defs>
</svg>
