<svg width="25" height="20" viewBox="0 0 25 20" fill="none" xmlns="http://www.w3.org/2000/svg">
<path fill-rule="evenodd" clip-rule="evenodd" d="M11.7778 4.24599L12.1876 4.21297C12.2458 4.20821 12.2997 4.18061 12.3376 4.13619C12.3754 4.09178 12.3941 4.03418 12.3896 3.97599L12.3395 3.36218C12.3373 3.3334 12.3293 3.30534 12.3162 3.27962C12.3031 3.25389 12.285 3.23101 12.2631 3.21228C12.2411 3.19355 12.2156 3.17934 12.1882 3.17047C12.1607 3.16159 12.1317 3.15822 12.1029 3.16056H11.1884L10.1982 0.93687C10.1247 0.794215 10.0104 0.676741 9.86972 0.5995C9.72908 0.522258 9.56858 0.488769 9.40879 0.503321H3.5815C3.42153 0.488977 3.2609 0.52254 3.12005 0.599743C2.97921 0.676945 2.86451 0.794296 2.79054 0.93687L1.80146 3.16056H0.886963C0.82884 3.15605 0.771293 3.17472 0.726891 3.2125C0.682489 3.25028 0.654841 3.30409 0.649986 3.36218L0.600649 3.97599C0.596032 4.03414 0.614666 4.09174 0.652464 4.13617C0.690263 4.18059 0.744137 4.20821 0.802272 4.21297L1.21212 4.24599C0.7456 4.91204 0.496836 5.70623 0.50003 6.51941L0.592493 7.69458C0.600295 7.80506 0.636607 7.91163 0.697886 8.00389C0.759165 8.09615 0.843316 8.17095 0.942127 8.22098V8.84256C0.980976 9.6914 1.24825 9.6914 1.84303 9.6914C2.4378 9.6914 2.74431 9.6914 2.78433 8.84256V8.29207H6.49475H10.1729V8.84178C10.2118 9.69062 10.4787 9.69062 11.0738 9.69062C11.669 9.69062 11.9751 9.69062 12.0147 8.84178V8.2202C12.1173 8.17157 12.2059 8.09782 12.2723 8.00579C12.3387 7.91377 12.3808 7.80645 12.3947 7.69381L12.4887 6.51863C12.4921 5.70585 12.2437 4.91196 11.7778 4.24599ZM4.3744 6.91489C4.3743 6.97321 4.35111 7.02912 4.30991 7.07039C4.2687 7.11167 4.21284 7.13496 4.15452 7.13516H1.98793C1.95897 7.13521 1.93029 7.12955 1.90352 7.1185C1.87675 7.10746 1.85242 7.09124 1.83193 7.07079C1.81143 7.05033 1.79517 7.02602 1.78408 6.99927C1.77298 6.97252 1.76727 6.94385 1.76727 6.91489V6.12238C1.76717 6.09339 1.77281 6.06467 1.78387 6.03787C1.79492 6.01108 1.81118 5.98673 1.83169 5.96625C1.85221 5.94577 1.87658 5.92956 1.9034 5.91855C1.93021 5.90754 1.95894 5.90195 1.98793 5.90211L4.15452 6.07809C4.21277 6.07829 4.26858 6.10153 4.30977 6.14272C4.35096 6.18391 4.3742 6.23972 4.3744 6.29797V6.91489ZM2.47082 3.81477L3.53605 1.36459H9.45346L10.5183 3.81477H2.4716H2.47082ZM11.2234 6.91489C11.2234 6.97331 11.2002 7.02933 11.1589 7.07064C11.1176 7.11195 11.0616 7.13516 11.0031 7.13516H8.83654C8.77816 7.13506 8.72219 7.11182 8.6809 7.07053C8.63962 7.02924 8.61638 6.97328 8.61627 6.91489V6.29797C8.61658 6.23969 8.6399 6.18388 8.68115 6.14269C8.72241 6.10151 8.77826 6.07829 8.83654 6.07809L11.0031 5.90211C11.0321 5.90201 11.0608 5.90763 11.0875 5.91866C11.1143 5.9297 11.1386 5.94592 11.1591 5.9664C11.1796 5.98687 11.1958 6.01119 11.2068 6.03796C11.2179 6.06473 11.2235 6.09342 11.2234 6.12238V6.91489ZM23.7655 9.69536L24.1754 9.66234C24.2335 9.65758 24.2875 9.62997 24.3253 9.58556C24.3632 9.54115 24.3819 9.48354 24.3774 9.42536L24.3273 8.81155C24.325 8.78276 24.3171 8.75471 24.304 8.72898C24.2909 8.70326 24.2728 8.68037 24.2508 8.66164C24.2288 8.64291 24.2034 8.62871 24.1759 8.61983C24.1484 8.61096 24.1195 8.60759 24.0907 8.60993H23.1762L22.1859 6.38624C22.1125 6.24358 21.9981 6.12611 21.8575 6.04887C21.7168 5.97162 21.5563 5.93814 21.3965 5.95269H15.5693C15.4093 5.93834 15.2486 5.97191 15.1078 6.04911C14.967 6.12631 14.8523 6.24366 14.7783 6.38624L13.7892 8.60993H12.8747C12.8166 8.60541 12.759 8.62409 12.7146 8.66187C12.6702 8.69965 12.6426 8.75345 12.6377 8.81155L12.5884 9.42536C12.5838 9.48351 12.6024 9.54111 12.6402 9.58553C12.678 9.62996 12.7319 9.65758 12.79 9.66234L13.1999 9.69536C12.7333 10.3614 12.4846 11.1556 12.4878 11.9688L12.5802 13.1439C12.588 13.2544 12.6244 13.361 12.6856 13.4533C12.7469 13.5455 12.8311 13.6203 12.9299 13.6703V14.2919C12.9687 15.1408 13.236 15.1408 13.8308 15.1408C14.4255 15.1408 14.7321 15.1408 14.7721 14.2919V13.7414H18.4825H22.1607V14.2911C22.1995 15.14 22.4664 15.14 23.0616 15.14C23.6567 15.14 23.9629 15.14 24.0025 14.2911V13.6696C24.105 13.6209 24.1936 13.5472 24.2601 13.4552C24.3265 13.3631 24.3686 13.2558 24.3824 13.1432L24.4764 11.968C24.4798 11.1552 24.2315 10.3613 23.7655 9.69536ZM16.3621 12.3643C16.362 12.4226 16.3389 12.4785 16.2977 12.5198C16.2565 12.561 16.2006 12.5843 16.1423 12.5845H13.9757C13.9467 12.5846 13.918 12.5789 13.8913 12.5679C13.8645 12.5568 13.8402 12.5406 13.8197 12.5202C13.7992 12.4997 13.7829 12.4754 13.7718 12.4486C13.7607 12.4219 13.755 12.3932 13.755 12.3643V11.5717C13.7549 11.5428 13.7606 11.514 13.7716 11.4872C13.7827 11.4604 13.7989 11.4361 13.8194 11.4156C13.84 11.3951 13.8643 11.3789 13.8911 11.3679C13.918 11.3569 13.9467 11.3513 13.9757 11.3515L16.1423 11.5275C16.2005 11.5277 16.2563 11.5509 16.2975 11.5921C16.3387 11.6333 16.3619 11.6891 16.3621 11.7473V12.3643ZM14.4586 9.26414L15.5238 6.81396H21.4412L22.5061 9.26414H14.4593H14.4586ZM23.2111 12.3643C23.2111 12.4227 23.1879 12.4787 23.1466 12.52C23.1053 12.5613 23.0493 12.5845 22.9909 12.5845H20.8243C20.7659 12.5844 20.7099 12.5612 20.6687 12.5199C20.6274 12.4786 20.6041 12.4226 20.604 12.3643V11.7473C20.6043 11.6891 20.6276 11.6332 20.6689 11.5921C20.7102 11.5509 20.766 11.5277 20.8243 11.5275L22.9909 11.3515C23.0198 11.3514 23.0485 11.357 23.0753 11.368C23.1021 11.3791 23.1264 11.3953 23.1469 11.4158C23.1673 11.4362 23.1836 11.4606 23.1946 11.4873C23.2056 11.5141 23.2113 11.5428 23.2111 11.5717V12.3643ZM12.1876 14.0213L11.7778 14.0543C12.2437 14.7202 12.4921 15.5141 12.4887 16.3269L12.3947 17.5021C12.3808 17.6147 12.3387 17.7221 12.2723 17.8141C12.2059 17.9061 12.1173 17.9799 12.0147 18.0285V18.6501C11.9751 19.4989 11.669 19.4989 11.0738 19.4989C10.4787 19.4989 10.2118 19.4989 10.1729 18.6501V18.1004H6.49475H2.78433V18.6508C2.74431 19.4997 2.4378 19.4997 1.84303 19.4997C1.24825 19.4997 0.980976 19.4997 0.942127 18.6508V18.0293C0.843316 17.9792 0.759165 17.9044 0.697886 17.8122C0.636607 17.7199 0.600295 17.6133 0.592493 17.5029L0.50003 16.3277C0.496836 15.5145 0.7456 14.7203 1.21212 14.0543L0.802272 14.0213C0.744137 14.0165 0.690263 13.9889 0.652464 13.9445C0.614666 13.9 0.596032 13.8424 0.600649 13.7843L0.649986 13.1705C0.654841 13.1124 0.682489 13.0586 0.726891 13.0208C0.771293 12.983 0.82884 12.9643 0.886963 12.9688H1.80146L2.79054 10.7452C2.86451 10.6026 2.97921 10.4852 3.12005 10.408C3.2609 10.3308 3.42153 10.2973 3.5815 10.3116H9.40879C9.56858 10.2971 9.72908 10.3305 9.86972 10.4078C10.0104 10.485 10.1247 10.6025 10.1982 10.7452L11.1884 12.9688H12.1029C12.1317 12.9665 12.1607 12.9699 12.1882 12.9788C12.2156 12.9876 12.2411 13.0018 12.2631 13.0206C12.285 13.0393 12.3031 13.0622 12.3162 13.0879C12.3293 13.1136 12.3373 13.1417 12.3395 13.1705L12.3896 13.7843C12.3941 13.8425 12.3754 13.9001 12.3376 13.9445C12.2997 13.9889 12.2458 14.0165 12.1876 14.0213ZM4.30991 16.8787C4.35111 16.8374 4.3743 16.7815 4.3744 16.7232V16.1063C4.3742 16.048 4.35096 15.9922 4.30977 15.951C4.26858 15.9098 4.21277 15.8866 4.15452 15.8864L1.98793 15.7104C1.95894 15.7102 1.93021 15.7158 1.9034 15.7268C1.87658 15.7379 1.85221 15.7541 1.83169 15.7745C1.81118 15.795 1.79492 15.8194 1.78387 15.8462C1.77281 15.873 1.76717 15.9017 1.76727 15.9307V16.7232C1.76727 16.7521 1.77298 16.7808 1.78408 16.8076C1.79517 16.8343 1.81143 16.8586 1.83193 16.8791C1.85242 16.8995 1.87675 16.9157 1.90352 16.9268C1.93029 16.9378 1.95897 16.9435 1.98793 16.9434H4.15452C4.21284 16.9432 4.2687 16.92 4.30991 16.8787ZM3.53605 11.1729L2.47082 13.6231H2.4716H10.5183L9.45346 11.1729H3.53605ZM11.1589 16.8789C11.2002 16.8376 11.2234 16.7816 11.2234 16.7232V15.9307C11.2235 15.9017 11.2179 15.873 11.2068 15.8462C11.1958 15.8195 11.1796 15.7952 11.1591 15.7747C11.1386 15.7542 11.1143 15.738 11.0875 15.727C11.0608 15.7159 11.0321 15.7103 11.0031 15.7104L8.83654 15.8864C8.77826 15.8866 8.72241 15.9098 8.68115 15.951C8.6399 15.9922 8.61658 16.048 8.61627 16.1063V16.7232C8.61638 16.7816 8.63962 16.8375 8.6809 16.8788C8.72219 16.9201 8.77816 16.9433 8.83654 16.9434H11.0031C11.0616 16.9434 11.1176 16.9202 11.1589 16.8789Z" fill="black"/>
</svg>
