<svg width="19" height="19" viewBox="0 0 19 19" fill="none" xmlns="http://www.w3.org/2000/svg">
<path fill-rule="evenodd" clip-rule="evenodd" d="M2.62817 0.55002H16.4118C17.8652 0.55002 19.0431 1.61214 18.9988 2.88012V16.1208C18.9827 16.6609 18.7725 17.1799 18.4026 17.5929C18.0328 18.0059 17.5251 18.2884 16.9628 18.3942C17.0277 18.2561 17.0611 18.1067 17.0609 17.9556V11.2905C17.0601 11.1815 17.0145 11.0771 16.9336 10.9991C16.8526 10.9212 16.7428 10.8759 16.6271 10.8729H4.7497C4.63571 10.8782 4.52823 10.9244 4.44932 11.0021C4.37041 11.0798 4.32606 11.183 4.32539 11.2905V17.9556C4.32509 18.1279 4.36852 18.2977 4.45205 18.4509H2.58384C1.91546 18.4575 1.2709 18.2174 0.788018 17.7819C0.305141 17.3464 0.0222989 16.7502 0 16.1208V2.88012C0.0247903 2.24411 0.314536 1.64292 0.806465 1.20678C1.29839 0.77064 1.95289 0.534681 2.62817 0.55002ZM2.80042 5.10787C2.96405 5.26039 3.18335 5.34822 3.41345 5.35342H7.86866C8.09766 5.34673 8.31538 5.25823 8.47767 5.10587C8.63997 4.95351 8.73468 4.7487 8.74261 4.53296V3.71251C8.73468 3.49677 8.63997 3.29196 8.47767 3.1396C8.31538 2.98724 8.09766 2.89874 7.86866 2.89205H3.40712C3.17812 2.89874 2.9604 2.98724 2.79811 3.1396C2.63582 3.29196 2.5411 3.49677 2.53317 3.71251V4.53296C2.54118 4.7497 2.63678 4.95536 2.80042 5.10787ZM16.9303 9.85775C17.011 9.78174 17.0577 9.67951 17.0609 9.57206V8.90376C17.0622 8.75871 17.0328 8.61488 16.9746 8.48061C16.9164 8.34634 16.8304 8.22431 16.7217 8.1216C16.613 8.0189 16.4837 7.93757 16.3414 7.88234C16.199 7.82711 16.0464 7.79908 15.8925 7.79987H14.4454V7.25688C14.4454 7.04007 14.354 6.83214 14.1913 6.67884C14.0286 6.52553 13.8079 6.43941 13.5778 6.43941C13.3477 6.43941 13.127 6.52553 12.9643 6.67884C12.8016 6.83214 12.7102 7.04007 12.7102 7.25688V7.79987H8.65711V7.25688C8.65711 7.04007 8.56571 6.83214 8.403 6.67884C8.24029 6.52553 8.01961 6.43941 7.7895 6.43941C7.5594 6.43941 7.33872 6.52553 7.17601 6.67884C7.0133 6.83214 6.92189 7.04007 6.92189 7.25688V7.81479H5.47482C5.16825 7.81557 4.87444 7.93046 4.65737 8.13443C4.4403 8.33839 4.31756 8.61491 4.31589 8.90376V9.57206C4.31908 9.67951 4.36581 9.78174 4.44649 9.85775C4.52716 9.93376 4.63565 9.97779 4.7497 9.98079H16.6271C16.7412 9.97779 16.8496 9.93376 16.9303 9.85775ZM7.26294 12.7795H8.42187C8.58101 12.7795 8.71002 12.9011 8.71002 13.051V14.143C8.71002 14.2929 8.58101 14.4145 8.42187 14.4145H7.26294C7.1038 14.4145 6.9748 14.2929 6.9748 14.143V13.051C6.9748 12.9011 7.1038 12.7795 7.26294 12.7795ZM10.1592 12.7795H11.3182C11.4773 12.7795 11.6063 12.9011 11.6063 13.051V14.143C11.6063 14.2929 11.4773 14.4145 11.3182 14.4145H10.1592C10.0001 14.4145 9.87109 14.2929 9.87109 14.143V13.051C9.87109 12.9011 10.0001 12.7795 10.1592 12.7795ZM14.2118 12.7795H13.0529C12.8938 12.7795 12.7647 12.9011 12.7647 13.051V14.143C12.7647 14.2929 12.8938 14.4145 13.0529 14.4145H14.2118C14.371 14.4145 14.5 14.2929 14.5 14.143V13.051C14.5 12.9011 14.371 12.7795 14.2118 12.7795ZM14.2118 15.5035H13.0529C12.8938 15.5035 12.7647 15.6251 12.7647 15.775V16.867C12.7647 17.0169 12.8938 17.1385 13.0529 17.1385H14.2118C14.371 17.1385 14.5 17.0169 14.5 16.867V15.775C14.5 15.6251 14.371 15.5035 14.2118 15.5035ZM11.3182 15.5035H10.1592C10.0001 15.5035 9.87109 15.6251 9.87109 15.775V16.867C9.87109 17.0169 10.0001 17.1385 10.1592 17.1385H11.3182C11.4773 17.1385 11.6063 17.0169 11.6063 16.867V15.775C11.6063 15.6251 11.4773 15.5035 11.3182 15.5035ZM8.42187 15.5035H7.26294C7.1038 15.5035 6.9748 15.6251 6.9748 15.775V16.867C6.9748 17.0169 7.1038 17.1385 7.26294 17.1385H8.42187C8.58101 17.1385 8.71002 17.0169 8.71002 16.867V15.775C8.71002 15.6251 8.58101 15.5035 8.42187 15.5035Z" fill="black"/>
</svg>
