<svg width="18" height="18" viewBox="0 0 18 18" fill="none" xmlns="http://www.w3.org/2000/svg">
<g clip-path="url(#clip0_184_171)">
<path d="M4.44423 5.14224L7.21878 7.92403C7.69505 7.46695 8.108 7.07061 8.41771 6.77281L5.61879 3.96715L5.27637 2.44913L2.77889 0.931152L2.09355 1.61703L1.4082 2.30234L2.92622 4.79985L4.44423 5.14224Z" fill="black"/>
<path d="M12.8749 9.67383L16.9776 13.7635C17.734 14.5194 17.734 15.7454 16.9776 16.5018C16.2212 17.2577 14.9958 17.2577 14.2394 16.5018L10.1367 12.4121L12.8749 9.67383Z" fill="black"/>
<path d="M16.2486 7.2538C17.6613 5.97186 17.8973 4.51507 17.5814 3.28656C17.572 3.18901 17.5487 3.10706 17.4636 3.04584L17.1793 2.81288C17.13 2.7667 17.0636 2.74438 16.9972 2.75063C16.9303 2.75737 16.8696 2.7916 16.8302 2.84609L15.1949 4.97212C15.1492 5.0349 15.0756 5.0707 14.9983 5.06811L14.4048 5.1117C14.3539 5.11014 14.3046 5.09198 14.2647 5.0598L13.1181 4.08808C13.0715 4.0502 13.0408 3.99624 13.033 3.93658L12.962 3.39908C12.9537 3.33995 12.9687 3.27975 13.004 3.23098L14.535 1.1511C14.6045 1.05564 14.591 0.92336 14.5049 0.842942L14.1334 0.552415C14.0607 0.484979 13.9783 0.494309 13.8657 0.51609C12.8084 0.724639 11.0029 1.74876 10.5448 3.16404C10.1412 4.40969 10.2818 5.28801 10.2818 5.28801C10.2818 5.98996 10.0509 6.66647 9.76715 6.95026L1.79017 14.6088C1.7746 14.6228 1.75955 14.6373 1.74451 14.6524C1.08563 15.3113 1.08666 16.3805 1.72323 17.0171C2.3598 17.6537 3.44511 17.6703 4.10399 17.0114C4.13461 16.9808 4.16419 16.9491 4.19168 16.9165L11.8839 8.60115C12.8302 7.75859 14.7036 8.65613 16.2486 7.2538Z" fill="black"/>
</g>
<defs>
<clipPath id="clip0_184_171">
<rect width="17" height="17" fill="white" transform="translate(0.976562 0.5)"/>
</clipPath>
</defs>
</svg>
