<svg width="26" height="26" viewBox="0 0 26 26" fill="none" xmlns="http://www.w3.org/2000/svg">
<path d="M8.9375 7.92188C8.9375 8.99932 9.36551 10.0326 10.1274 10.7945C10.8892 11.5564 11.9226 11.9844 13 11.9844C14.0774 11.9844 15.1108 11.5564 15.8726 10.7945C16.6345 10.0326 17.0625 8.99932 17.0625 7.92188C17.0625 6.84443 16.6345 5.81112 15.8726 5.04925C15.1108 4.28739 14.0774 3.85938 13 3.85938C11.9226 3.85938 10.8892 4.28739 10.1274 5.04925C9.36551 5.81112 8.9375 6.84443 8.9375 7.92188Z" stroke="white" stroke-linecap="round" stroke-linejoin="round"/>
<path d="M6.90625 22.1406V20.1094C6.90625 19.0319 7.33426 17.9986 8.09613 17.2368C8.858 16.4749 9.89131 16.0469 10.9688 16.0469H15.0312C16.1087 16.0469 17.142 16.4749 17.9039 17.2368C18.6657 17.9986 19.0938 19.0319 19.0938 20.1094V22.1406" stroke="white" stroke-linecap="round" stroke-linejoin="round"/>
</svg>
