<svg width="26" height="26" viewBox="0 0 26 26" fill="none" xmlns="http://www.w3.org/2000/svg">
<path d="M8.9375 7.92188C8.9375 8.99932 9.36551 10.0326 10.1274 10.7945C10.8892 11.5564 11.9226 11.9844 13 11.9844C14.0774 11.9844 15.1108 11.5564 15.8726 10.7945C16.6345 10.0326 17.0625 8.99932 17.0625 7.92188C17.0625 6.84443 16.6345 5.81112 15.8726 5.04925C15.1108 4.28739 14.0774 3.85938 13 3.85938C11.9226 3.85938 10.8892 4.28739 10.1274 5.04925C9.36551 5.81112 8.9375 6.84443 8.9375 7.92188Z" stroke="white" stroke-linecap="round" stroke-linejoin="round"/>
<path d="M6.90625 22.1406V20.1094C6.90625 19.0319 7.33426 17.9986 8.09613 17.2368C8.858 16.4749 9.89131 16.0469 10.9688 16.0469H13.5078" stroke="white" stroke-linecap="round" stroke-linejoin="round"/>
<path d="M18.0791 20.1094C18.0791 20.6481 18.2931 21.1648 18.674 21.5457C19.055 21.9266 19.5716 22.1406 20.1104 22.1406C20.6491 22.1406 21.1657 21.9266 21.5467 21.5457C21.9276 21.1648 22.1416 20.6481 22.1416 20.1094C22.1416 19.5707 21.9276 19.054 21.5467 18.6731C21.1657 18.2921 20.6491 18.0781 20.1104 18.0781C19.5716 18.0781 19.055 18.2921 18.674 18.6731C18.2931 19.054 18.0791 19.5707 18.0791 20.1094Z" stroke="white" stroke-linecap="round" stroke-linejoin="round"/>
<path d="M20.1104 16.5547V18.0781" stroke="white" stroke-linecap="round" stroke-linejoin="round"/>
<path d="M20.1104 22.1406V23.6641" stroke="white" stroke-linecap="round" stroke-linejoin="round"/>
<path d="M23.1889 18.332L21.8696 19.0938" stroke="white" stroke-linecap="round" stroke-linejoin="round"/>
<path d="M18.3525 21.125L17.0322 21.8867" stroke="white" stroke-linecap="round" stroke-linejoin="round"/>
<path d="M17.0322 18.332L18.3525 19.0938" stroke="white" stroke-linecap="round" stroke-linejoin="round"/>
<path d="M21.8696 21.125L23.1899 21.8867" stroke="white" stroke-linecap="round" stroke-linejoin="round"/>
</svg>
