<svg width="26" height="26" viewBox="0 0 26 26" fill="none" xmlns="http://www.w3.org/2000/svg">
<path d="M6 8.00004C6 11.0746 9.33333 12.9963 12 11.4589C13.2376 10.7455 14 9.42691 14 8.00004C14 4.92537 10.6667 3.00374 8 4.54108C6.76242 5.25455 6 6.57308 6 8.00004Z" stroke="white" stroke-linecap="round" stroke-linejoin="round"/>
<path d="M4 22V20C4 17.7908 5.87083 16 8.17853 16H12.3571C13.3599 16 14.2792 16.338 15 16.9009" stroke="white" stroke-linecap="round" stroke-linejoin="round"/>
<path d="M17 4C19.9726 4.78841 21.0066 8.61453 18.8611 10.887C18.3508 11.4275 17.707 11.8125 17 12" stroke="white" stroke-linecap="round" stroke-linejoin="round"/>
<path d="M17 20H23" stroke="white" stroke-linecap="round" stroke-linejoin="round"/>
<path d="M20 17V23" stroke="white" stroke-linecap="round" stroke-linejoin="round"/>
</svg>
